<?xml version="1.0" encoding="utf-8" standalone="no"?>
<!DOCTYPE svg PUBLIC "-//W3C//DTD SVG 1.1//EN"
  "http://www.w3.org/Graphics/SVG/1.1/DTD/svg11.dtd">
<!-- Created with matplotlib (https://matplotlib.org/) -->
<svg height="250.670071pt" version="1.1" viewBox="0 0 373.291051 250.670071" width="373.291051pt" xmlns="http://www.w3.org/2000/svg" xmlns:xlink="http://www.w3.org/1999/xlink">
 <metadata>
  <rdf:RDF xmlns:cc="http://creativecommons.org/ns#" xmlns:dc="http://purl.org/dc/elements/1.1/" xmlns:rdf="http://www.w3.org/1999/02/22-rdf-syntax-ns#">
   <cc:Work>
    <dc:type rdf:resource="http://purl.org/dc/dcmitype/StillImage"/>
    <dc:date>2020-09-14T01:56:06.630458</dc:date>
    <dc:format>image/svg+xml</dc:format>
    <dc:creator>
     <cc:Agent>
      <dc:title>Matplotlib v3.3.1, https://matplotlib.org/</dc:title>
     </cc:Agent>
    </dc:creator>
   </cc:Work>
  </rdf:RDF>
 </metadata>
 <defs>
  <style type="text/css">*{stroke-linecap:butt;stroke-linejoin:round;}</style>
 </defs>
 <g id="figure_1">
  <g id="patch_1">
   <path d="M 0 250.670071 
L 373.291051 250.670071 
L 373.291051 0 
L 0 0 
z
" style="fill:none;"/>
  </g>
  <g id="axes_1">
   <g id="patch_2">
    <path d="M 30.103125 226.791946 
L 364.903125 226.791946 
L 364.903125 9.351946 
L 30.103125 9.351946 
z
" style="fill:#ffffff;"/>
   </g>
   <g id="PathCollection_1">
    <defs>
     <path d="M 0 2.236068 
C 0.593012 2.236068 1.161816 2.000462 1.581139 1.581139 
C 2.000462 1.161816 2.236068 0.593012 2.236068 -0 
C 2.236068 -0.593012 2.000462 -1.161816 1.581139 -1.581139 
C 1.161816 -2.000462 0.593012 -2.236068 0 -2.236068 
C -0.593012 -2.236068 -1.161816 -2.000462 -1.581139 -1.581139 
C -2.000462 -1.161816 -2.236068 -0.593012 -2.236068 0 
C -2.236068 0.593012 -2.000462 1.161816 -1.581139 1.581139 
C -1.161816 2.000462 -0.593012 2.236068 0 2.236068 
z
" id="C0_0_36b307fa56"/>
    </defs>
    <g clip-path="url(#peadff5a3e1)">
     <use style="fill:#00ff00;stroke:#000000;" x="197.503125" xlink:href="#C0_0_36b307fa56" y="134.544673"/>
    </g>
    <g clip-path="url(#peadff5a3e1)">
     <use style="fill:#00ff00;stroke:#000000;" x="197.503125" xlink:href="#C0_0_36b307fa56" y="142.781037"/>
    </g>
    <g clip-path="url(#peadff5a3e1)">
     <use style="fill:#0000ff;stroke:#000000;" x="214.412216" xlink:href="#C0_0_36b307fa56" y="142.781037"/>
    </g>
    <g clip-path="url(#peadff5a3e1)">
     <use style="fill:#ff0000;stroke:#000000;" x="70.684943" xlink:href="#C0_0_36b307fa56" y="101.599219"/>
    </g>
    <g clip-path="url(#peadff5a3e1)">
     <use style="fill:#00ff00;stroke:#000000;" x="121.412216" xlink:href="#C0_0_36b307fa56" y="159.253764"/>
    </g>
    <g clip-path="url(#peadff5a3e1)">
     <use style="fill:#ff0000;stroke:#000000;" x="79.139489" xlink:href="#C0_0_36b307fa56" y="118.071946"/>
    </g>
    <g clip-path="url(#peadff5a3e1)">
     <use style="fill:#ff0000;stroke:#000000;" x="121.412216" xlink:href="#C0_0_36b307fa56" y="93.362855"/>
    </g>
    <g clip-path="url(#peadff5a3e1)">
     <use style="fill:#ff0000;stroke:#000000;" x="104.503125" xlink:href="#C0_0_36b307fa56" y="118.071946"/>
    </g>
    <g clip-path="url(#peadff5a3e1)">
     <use style="fill:#00ff00;stroke:#000000;" x="163.684943" xlink:href="#C0_0_36b307fa56" y="151.017401"/>
    </g>
    <g clip-path="url(#peadff5a3e1)">
     <use style="fill:#0000ff;stroke:#000000;" x="332.775852" xlink:href="#C0_0_36b307fa56" y="151.017401"/>
    </g>
    <g clip-path="url(#peadff5a3e1)">
     <use style="fill:#00ff00;stroke:#000000;" x="172.139489" xlink:href="#C0_0_36b307fa56" y="159.253764"/>
    </g>
    <g clip-path="url(#peadff5a3e1)">
     <use style="fill:#ff0000;stroke:#000000;" x="53.775852" xlink:href="#C0_0_36b307fa56" y="118.071946"/>
    </g>
    <g clip-path="url(#peadff5a3e1)">
     <use style="fill:#0000ff;stroke:#000000;" x="332.775852" xlink:href="#C0_0_36b307fa56" y="68.653764"/>
    </g>
    <g clip-path="url(#peadff5a3e1)">
     <use style="fill:#00ff00;stroke:#000000;" x="180.594034" xlink:href="#C0_0_36b307fa56" y="134.544673"/>
    </g>
    <g clip-path="url(#peadff5a3e1)">
     <use style="fill:#ff0000;stroke:#000000;" x="104.503125" xlink:href="#C0_0_36b307fa56" y="93.362855"/>
    </g>
    <g clip-path="url(#peadff5a3e1)">
     <use style="fill:#00ff00;stroke:#000000;" x="163.684943" xlink:href="#C0_0_36b307fa56" y="167.490128"/>
    </g>
    <g clip-path="url(#peadff5a3e1)">
     <use style="fill:#0000ff;stroke:#000000;" x="214.412216" xlink:href="#C0_0_36b307fa56" y="109.835582"/>
    </g>
    <g clip-path="url(#peadff5a3e1)">
     <use style="fill:#ff0000;stroke:#000000;" x="104.503125" xlink:href="#C0_0_36b307fa56" y="134.544673"/>
    </g>
    <g clip-path="url(#peadff5a3e1)">
     <use style="fill:#0000ff;stroke:#000000;" x="248.230398" xlink:href="#C0_0_36b307fa56" y="175.726491"/>
    </g>
    <g clip-path="url(#peadff5a3e1)">
     <use style="fill:#00ff00;stroke:#000000;" x="155.230398" xlink:href="#C0_0_36b307fa56" y="159.253764"/>
    </g>
    <g clip-path="url(#peadff5a3e1)">
     <use style="fill:#00ff00;stroke:#000000;" x="222.866761" xlink:href="#C0_0_36b307fa56" y="142.781037"/>
    </g>
    <g clip-path="url(#peadff5a3e1)">
     <use style="fill:#00ff00;stroke:#000000;" x="231.321307" xlink:href="#C0_0_36b307fa56" y="151.017401"/>
    </g>
    <g clip-path="url(#peadff5a3e1)">
     <use style="fill:#00ff00;stroke:#000000;" x="222.866761" xlink:href="#C0_0_36b307fa56" y="118.071946"/>
    </g>
    <g clip-path="url(#peadff5a3e1)">
     <use style="fill:#00ff00;stroke:#000000;" x="197.503125" xlink:href="#C0_0_36b307fa56" y="151.017401"/>
    </g>
    <g clip-path="url(#peadff5a3e1)">
     <use style="fill:#0000ff;stroke:#000000;" x="290.503125" xlink:href="#C0_0_36b307fa56" y="85.126491"/>
    </g>
    <g clip-path="url(#peadff5a3e1)">
     <use style="fill:#ff0000;stroke:#000000;" x="129.866761" xlink:href="#C0_0_36b307fa56" y="76.890128"/>
    </g>
    <g clip-path="url(#peadff5a3e1)">
     <use style="fill:#0000ff;stroke:#000000;" x="214.412216" xlink:href="#C0_0_36b307fa56" y="159.253764"/>
    </g>
    <g clip-path="url(#peadff5a3e1)">
     <use style="fill:#00ff00;stroke:#000000;" x="172.139489" xlink:href="#C0_0_36b307fa56" y="167.490128"/>
    </g>
    <g clip-path="url(#peadff5a3e1)">
     <use style="fill:#0000ff;stroke:#000000;" x="282.04858" xlink:href="#C0_0_36b307fa56" y="134.544673"/>
    </g>
    <g clip-path="url(#peadff5a3e1)">
     <use style="fill:#ff0000;stroke:#000000;" x="87.594034" xlink:href="#C0_0_36b307fa56" y="101.599219"/>
    </g>
    <g clip-path="url(#peadff5a3e1)">
     <use style="fill:#00ff00;stroke:#000000;" x="112.95767" xlink:href="#C0_0_36b307fa56" y="175.726491"/>
    </g>
    <g clip-path="url(#peadff5a3e1)">
     <use style="fill:#0000ff;stroke:#000000;" x="205.95767" xlink:href="#C0_0_36b307fa56" y="151.017401"/>
    </g>
    <g clip-path="url(#peadff5a3e1)">
     <use style="fill:#ff0000;stroke:#000000;" x="104.503125" xlink:href="#C0_0_36b307fa56" y="93.362855"/>
    </g>
    <g clip-path="url(#peadff5a3e1)">
     <use style="fill:#0000ff;stroke:#000000;" x="214.412216" xlink:href="#C0_0_36b307fa56" y="151.017401"/>
    </g>
    <g clip-path="url(#peadff5a3e1)">
     <use style="fill:#00ff00;stroke:#000000;" x="248.230398" xlink:href="#C0_0_36b307fa56" y="134.544673"/>
    </g>
    <g clip-path="url(#peadff5a3e1)">
     <use style="fill:#ff0000;stroke:#000000;" x="87.594034" xlink:href="#C0_0_36b307fa56" y="101.599219"/>
    </g>
    <g clip-path="url(#peadff5a3e1)">
     <use style="fill:#ff0000;stroke:#000000;" x="53.775852" xlink:href="#C0_0_36b307fa56" y="142.781037"/>
    </g>
    <g clip-path="url(#peadff5a3e1)">
     <use style="fill:#ff0000;stroke:#000000;" x="138.321307" xlink:href="#C0_0_36b307fa56" y="101.599219"/>
    </g>
    <g clip-path="url(#peadff5a3e1)">
     <use style="fill:#ff0000;stroke:#000000;" x="70.684943" xlink:href="#C0_0_36b307fa56" y="85.126491"/>
    </g>
    <g clip-path="url(#peadff5a3e1)">
     <use style="fill:#00ff00;stroke:#000000;" x="104.503125" xlink:href="#C0_0_36b307fa56" y="192.199219"/>
    </g>
    <g clip-path="url(#peadff5a3e1)">
     <use style="fill:#ff0000;stroke:#000000;" x="146.775852" xlink:href="#C0_0_36b307fa56" y="93.362855"/>
    </g>
    <g clip-path="url(#peadff5a3e1)">
     <use style="fill:#00ff00;stroke:#000000;" x="205.95767" xlink:href="#C0_0_36b307fa56" y="200.435582"/>
    </g>
    <g clip-path="url(#peadff5a3e1)">
     <use style="fill:#ff0000;stroke:#000000;" x="121.412216" xlink:href="#C0_0_36b307fa56" y="43.944673"/>
    </g>
    <g clip-path="url(#peadff5a3e1)">
     <use style="fill:#0000ff;stroke:#000000;" x="265.139489" xlink:href="#C0_0_36b307fa56" y="126.30831"/>
    </g>
    <g clip-path="url(#peadff5a3e1)">
     <use style="fill:#0000ff;stroke:#000000;" x="290.503125" xlink:href="#C0_0_36b307fa56" y="118.071946"/>
    </g>
    <g clip-path="url(#peadff5a3e1)">
     <use style="fill:#ff0000;stroke:#000000;" x="96.04858" xlink:href="#C0_0_36b307fa56" y="126.30831"/>
    </g>
    <g clip-path="url(#peadff5a3e1)">
     <use style="fill:#0000ff;stroke:#000000;" x="172.139489" xlink:href="#C0_0_36b307fa56" y="151.017401"/>
    </g>
    <g clip-path="url(#peadff5a3e1)">
     <use style="fill:#0000ff;stroke:#000000;" x="248.230398" xlink:href="#C0_0_36b307fa56" y="134.544673"/>
    </g>
    <g clip-path="url(#peadff5a3e1)">
     <use style="fill:#0000ff;stroke:#000000;" x="332.775852" xlink:href="#C0_0_36b307fa56" y="134.544673"/>
    </g>
    <g clip-path="url(#peadff5a3e1)">
     <use style="fill:#0000ff;stroke:#000000;" x="248.230398" xlink:href="#C0_0_36b307fa56" y="126.30831"/>
    </g>
    <g clip-path="url(#peadff5a3e1)">
     <use style="fill:#ff0000;stroke:#000000;" x="96.04858" xlink:href="#C0_0_36b307fa56" y="134.544673"/>
    </g>
    <g clip-path="url(#peadff5a3e1)">
     <use style="fill:#0000ff;stroke:#000000;" x="231.321307" xlink:href="#C0_0_36b307fa56" y="134.544673"/>
    </g>
    <g clip-path="url(#peadff5a3e1)">
     <use style="fill:#0000ff;stroke:#000000;" x="324.321307" xlink:href="#C0_0_36b307fa56" y="134.544673"/>
    </g>
    <g clip-path="url(#peadff5a3e1)">
     <use style="fill:#00ff00;stroke:#000000;" x="205.95767" xlink:href="#C0_0_36b307fa56" y="142.781037"/>
    </g>
    <g clip-path="url(#peadff5a3e1)">
     <use style="fill:#00ff00;stroke:#000000;" x="96.04858" xlink:href="#C0_0_36b307fa56" y="183.962855"/>
    </g>
    <g clip-path="url(#peadff5a3e1)">
     <use style="fill:#00ff00;stroke:#000000;" x="155.230398" xlink:href="#C0_0_36b307fa56" y="142.781037"/>
    </g>
    <g clip-path="url(#peadff5a3e1)">
     <use style="fill:#00ff00;stroke:#000000;" x="155.230398" xlink:href="#C0_0_36b307fa56" y="134.544673"/>
    </g>
    <g clip-path="url(#peadff5a3e1)">
     <use style="fill:#00ff00;stroke:#000000;" x="265.139489" xlink:href="#C0_0_36b307fa56" y="126.30831"/>
    </g>
    <g clip-path="url(#peadff5a3e1)">
     <use style="fill:#00ff00;stroke:#000000;" x="239.775852" xlink:href="#C0_0_36b307fa56" y="142.781037"/>
    </g>
    <g clip-path="url(#peadff5a3e1)">
     <use style="fill:#ff0000;stroke:#000000;" x="112.95767" xlink:href="#C0_0_36b307fa56" y="93.362855"/>
    </g>
    <g clip-path="url(#peadff5a3e1)">
     <use style="fill:#ff0000;stroke:#000000;" x="112.95767" xlink:href="#C0_0_36b307fa56" y="101.599219"/>
    </g>
    <g clip-path="url(#peadff5a3e1)">
     <use style="fill:#0000ff;stroke:#000000;" x="307.412216" xlink:href="#C0_0_36b307fa56" y="151.017401"/>
    </g>
    <g clip-path="url(#peadff5a3e1)">
     <use style="fill:#0000ff;stroke:#000000;" x="163.684943" xlink:href="#C0_0_36b307fa56" y="175.726491"/>
    </g>
    <g clip-path="url(#peadff5a3e1)">
     <use style="fill:#0000ff;stroke:#000000;" x="231.321307" xlink:href="#C0_0_36b307fa56" y="118.071946"/>
    </g>
    <g clip-path="url(#peadff5a3e1)">
     <use style="fill:#ff0000;stroke:#000000;" x="112.95767" xlink:href="#C0_0_36b307fa56" y="76.890128"/>
    </g>
    <g clip-path="url(#peadff5a3e1)">
     <use style="fill:#ff0000;stroke:#000000;" x="146.775852" xlink:href="#C0_0_36b307fa56" y="35.70831"/>
    </g>
    <g clip-path="url(#peadff5a3e1)">
     <use style="fill:#ff0000;stroke:#000000;" x="112.95767" xlink:href="#C0_0_36b307fa56" y="93.362855"/>
    </g>
    <g clip-path="url(#peadff5a3e1)">
     <use style="fill:#0000ff;stroke:#000000;" x="214.412216" xlink:href="#C0_0_36b307fa56" y="175.726491"/>
    </g>
    <g clip-path="url(#peadff5a3e1)">
     <use style="fill:#00ff00;stroke:#000000;" x="189.04858" xlink:href="#C0_0_36b307fa56" y="200.435582"/>
    </g>
    <g clip-path="url(#peadff5a3e1)">
     <use style="fill:#0000ff;stroke:#000000;" x="197.503125" xlink:href="#C0_0_36b307fa56" y="167.490128"/>
    </g>
    <g clip-path="url(#peadff5a3e1)">
     <use style="fill:#0000ff;stroke:#000000;" x="248.230398" xlink:href="#C0_0_36b307fa56" y="109.835582"/>
    </g>
    <g clip-path="url(#peadff5a3e1)">
     <use style="fill:#00ff00;stroke:#000000;" x="163.684943" xlink:href="#C0_0_36b307fa56" y="151.017401"/>
    </g>
    <g clip-path="url(#peadff5a3e1)">
     <use style="fill:#ff0000;stroke:#000000;" x="104.503125" xlink:href="#C0_0_36b307fa56" y="85.126491"/>
    </g>
    <g clip-path="url(#peadff5a3e1)">
     <use style="fill:#0000ff;stroke:#000000;" x="222.866761" xlink:href="#C0_0_36b307fa56" y="159.253764"/>
    </g>
    <g clip-path="url(#peadff5a3e1)">
     <use style="fill:#ff0000;stroke:#000000;" x="138.321307" xlink:href="#C0_0_36b307fa56" y="76.890128"/>
    </g>
    <g clip-path="url(#peadff5a3e1)">
     <use style="fill:#0000ff;stroke:#000000;" x="349.684943" xlink:href="#C0_0_36b307fa56" y="68.653764"/>
    </g>
    <g clip-path="url(#peadff5a3e1)">
     <use style="fill:#ff0000;stroke:#000000;" x="163.684943" xlink:href="#C0_0_36b307fa56" y="19.235582"/>
    </g>
    <g clip-path="url(#peadff5a3e1)">
     <use style="fill:#00ff00;stroke:#000000;" x="189.04858" xlink:href="#C0_0_36b307fa56" y="142.781037"/>
    </g>
    <g clip-path="url(#peadff5a3e1)">
     <use style="fill:#00ff00;stroke:#000000;" x="155.230398" xlink:href="#C0_0_36b307fa56" y="134.544673"/>
    </g>
    <g clip-path="url(#peadff5a3e1)">
     <use style="fill:#ff0000;stroke:#000000;" x="138.321307" xlink:href="#C0_0_36b307fa56" y="60.417401"/>
    </g>
    <g clip-path="url(#peadff5a3e1)">
     <use style="fill:#00ff00;stroke:#000000;" x="172.139489" xlink:href="#C0_0_36b307fa56" y="159.253764"/>
    </g>
    <g clip-path="url(#peadff5a3e1)">
     <use style="fill:#ff0000;stroke:#000000;" x="104.503125" xlink:href="#C0_0_36b307fa56" y="101.599219"/>
    </g>
    <g clip-path="url(#peadff5a3e1)">
     <use style="fill:#0000ff;stroke:#000000;" x="205.95767" xlink:href="#C0_0_36b307fa56" y="101.599219"/>
    </g>
    <g clip-path="url(#peadff5a3e1)">
     <use style="fill:#0000ff;stroke:#000000;" x="222.866761" xlink:href="#C0_0_36b307fa56" y="151.017401"/>
    </g>
    <g clip-path="url(#peadff5a3e1)">
     <use style="fill:#0000ff;stroke:#000000;" x="189.04858" xlink:href="#C0_0_36b307fa56" y="134.544673"/>
    </g>
    <g clip-path="url(#peadff5a3e1)">
     <use style="fill:#00ff00;stroke:#000000;" x="189.04858" xlink:href="#C0_0_36b307fa56" y="101.599219"/>
    </g>
    <g clip-path="url(#peadff5a3e1)">
     <use style="fill:#ff0000;stroke:#000000;" x="163.684943" xlink:href="#C0_0_36b307fa56" y="68.653764"/>
    </g>
    <g clip-path="url(#peadff5a3e1)">
     <use style="fill:#ff0000;stroke:#000000;" x="104.503125" xlink:href="#C0_0_36b307fa56" y="109.835582"/>
    </g>
    <g clip-path="url(#peadff5a3e1)">
     <use style="fill:#0000ff;stroke:#000000;" x="180.594034" xlink:href="#C0_0_36b307fa56" y="134.544673"/>
    </g>
    <g clip-path="url(#peadff5a3e1)">
     <use style="fill:#00ff00;stroke:#000000;" x="189.04858" xlink:href="#C0_0_36b307fa56" y="159.253764"/>
    </g>
    <g clip-path="url(#peadff5a3e1)">
     <use style="fill:#00ff00;stroke:#000000;" x="146.775852" xlink:href="#C0_0_36b307fa56" y="167.490128"/>
    </g>
    <g clip-path="url(#peadff5a3e1)">
     <use style="fill:#ff0000;stroke:#000000;" x="112.95767" xlink:href="#C0_0_36b307fa56" y="68.653764"/>
    </g>
    <g clip-path="url(#peadff5a3e1)">
     <use style="fill:#00ff00;stroke:#000000;" x="248.230398" xlink:href="#C0_0_36b307fa56" y="126.30831"/>
    </g>
    <g clip-path="url(#peadff5a3e1)">
     <use style="fill:#0000ff;stroke:#000000;" x="231.321307" xlink:href="#C0_0_36b307fa56" y="134.544673"/>
    </g>
    <g clip-path="url(#peadff5a3e1)">
     <use style="fill:#00ff00;stroke:#000000;" x="180.594034" xlink:href="#C0_0_36b307fa56" y="118.071946"/>
    </g>
    <g clip-path="url(#peadff5a3e1)">
     <use style="fill:#00ff00;stroke:#000000;" x="214.412216" xlink:href="#C0_0_36b307fa56" y="109.835582"/>
    </g>
    <g clip-path="url(#peadff5a3e1)">
     <use style="fill:#00ff00;stroke:#000000;" x="214.412216" xlink:href="#C0_0_36b307fa56" y="175.726491"/>
    </g>
    <g clip-path="url(#peadff5a3e1)">
     <use style="fill:#ff0000;stroke:#000000;" x="62.230398" xlink:href="#C0_0_36b307fa56" y="192.199219"/>
    </g>
    <g clip-path="url(#peadff5a3e1)">
     <use style="fill:#ff0000;stroke:#000000;" x="138.321307" xlink:href="#C0_0_36b307fa56" y="60.417401"/>
    </g>
    <g clip-path="url(#peadff5a3e1)">
     <use style="fill:#ff0000;stroke:#000000;" x="87.594034" xlink:href="#C0_0_36b307fa56" y="134.544673"/>
    </g>
    <g clip-path="url(#peadff5a3e1)">
     <use style="fill:#00ff00;stroke:#000000;" x="138.321307" xlink:href="#C0_0_36b307fa56" y="134.544673"/>
    </g>
    <g clip-path="url(#peadff5a3e1)">
     <use style="fill:#00ff00;stroke:#000000;" x="146.775852" xlink:href="#C0_0_36b307fa56" y="175.726491"/>
    </g>
    <g clip-path="url(#peadff5a3e1)">
     <use style="fill:#ff0000;stroke:#000000;" x="138.321307" xlink:href="#C0_0_36b307fa56" y="101.599219"/>
    </g>
    <g clip-path="url(#peadff5a3e1)">
     <use style="fill:#0000ff;stroke:#000000;" x="172.139489" xlink:href="#C0_0_36b307fa56" y="159.253764"/>
    </g>
    <g clip-path="url(#peadff5a3e1)">
     <use style="fill:#00ff00;stroke:#000000;" x="163.684943" xlink:href="#C0_0_36b307fa56" y="134.544673"/>
    </g>
    <g clip-path="url(#peadff5a3e1)">
     <use style="fill:#0000ff;stroke:#000000;" x="222.866761" xlink:href="#C0_0_36b307fa56" y="126.30831"/>
    </g>
    <g clip-path="url(#peadff5a3e1)">
     <use style="fill:#0000ff;stroke:#000000;" x="172.139489" xlink:href="#C0_0_36b307fa56" y="159.253764"/>
    </g>
    <g clip-path="url(#peadff5a3e1)">
     <use style="fill:#00ff00;stroke:#000000;" x="163.684943" xlink:href="#C0_0_36b307fa56" y="142.781037"/>
    </g>
    <g clip-path="url(#peadff5a3e1)">
     <use style="fill:#ff0000;stroke:#000000;" x="45.321307" xlink:href="#C0_0_36b307fa56" y="134.544673"/>
    </g>
    <g clip-path="url(#peadff5a3e1)">
     <use style="fill:#00ff00;stroke:#000000;" x="214.412216" xlink:href="#C0_0_36b307fa56" y="192.199219"/>
    </g>
    <g clip-path="url(#peadff5a3e1)">
     <use style="fill:#0000ff;stroke:#000000;" x="189.04858" xlink:href="#C0_0_36b307fa56" y="200.435582"/>
    </g>
    <g clip-path="url(#peadff5a3e1)">
     <use style="fill:#ff0000;stroke:#000000;" x="121.412216" xlink:href="#C0_0_36b307fa56" y="101.599219"/>
    </g>
    <g clip-path="url(#peadff5a3e1)">
     <use style="fill:#ff0000;stroke:#000000;" x="112.95767" xlink:href="#C0_0_36b307fa56" y="68.653764"/>
    </g>
    <g clip-path="url(#peadff5a3e1)">
     <use style="fill:#0000ff;stroke:#000000;" x="265.139489" xlink:href="#C0_0_36b307fa56" y="126.30831"/>
    </g>
    <g clip-path="url(#peadff5a3e1)">
     <use style="fill:#0000ff;stroke:#000000;" x="96.04858" xlink:href="#C0_0_36b307fa56" y="175.726491"/>
    </g>
    <g clip-path="url(#peadff5a3e1)">
     <use style="fill:#00ff00;stroke:#000000;" x="104.503125" xlink:href="#C0_0_36b307fa56" y="216.90831"/>
    </g>
    <g clip-path="url(#peadff5a3e1)">
     <use style="fill:#00ff00;stroke:#000000;" x="197.503125" xlink:href="#C0_0_36b307fa56" y="151.017401"/>
    </g>
    <g clip-path="url(#peadff5a3e1)">
     <use style="fill:#0000ff;stroke:#000000;" x="155.230398" xlink:href="#C0_0_36b307fa56" y="151.017401"/>
    </g>
    <g clip-path="url(#peadff5a3e1)">
     <use style="fill:#ff0000;stroke:#000000;" x="172.139489" xlink:href="#C0_0_36b307fa56" y="52.181037"/>
    </g>
    <g clip-path="url(#peadff5a3e1)">
     <use style="fill:#00ff00;stroke:#000000;" x="146.775852" xlink:href="#C0_0_36b307fa56" y="183.962855"/>
    </g>
    <g clip-path="url(#peadff5a3e1)">
     <use style="fill:#0000ff;stroke:#000000;" x="298.95767" xlink:href="#C0_0_36b307fa56" y="142.781037"/>
    </g>
    <g clip-path="url(#peadff5a3e1)">
     <use style="fill:#0000ff;stroke:#000000;" x="222.866761" xlink:href="#C0_0_36b307fa56" y="118.071946"/>
    </g>
    <g clip-path="url(#peadff5a3e1)">
     <use style="fill:#0000ff;stroke:#000000;" x="290.503125" xlink:href="#C0_0_36b307fa56" y="134.544673"/>
    </g>
    <g clip-path="url(#peadff5a3e1)">
     <use style="fill:#00ff00;stroke:#000000;" x="248.230398" xlink:href="#C0_0_36b307fa56" y="126.30831"/>
    </g>
    <g clip-path="url(#peadff5a3e1)">
     <use style="fill:#ff0000;stroke:#000000;" x="87.594034" xlink:href="#C0_0_36b307fa56" y="134.544673"/>
    </g>
    <g clip-path="url(#peadff5a3e1)">
     <use style="fill:#ff0000;stroke:#000000;" x="112.95767" xlink:href="#C0_0_36b307fa56" y="68.653764"/>
    </g>
    <g clip-path="url(#peadff5a3e1)">
     <use style="fill:#ff0000;stroke:#000000;" x="79.139489" xlink:href="#C0_0_36b307fa56" y="118.071946"/>
    </g>
    <g clip-path="url(#peadff5a3e1)">
     <use style="fill:#ff0000;stroke:#000000;" x="70.684943" xlink:href="#C0_0_36b307fa56" y="126.30831"/>
    </g>
    <g clip-path="url(#peadff5a3e1)">
     <use style="fill:#0000ff;stroke:#000000;" x="214.412216" xlink:href="#C0_0_36b307fa56" y="101.599219"/>
    </g>
    <g clip-path="url(#peadff5a3e1)">
     <use style="fill:#00ff00;stroke:#000000;" x="239.775852" xlink:href="#C0_0_36b307fa56" y="134.544673"/>
    </g>
    <g clip-path="url(#peadff5a3e1)">
     <use style="fill:#0000ff;stroke:#000000;" x="222.866761" xlink:href="#C0_0_36b307fa56" y="151.017401"/>
    </g>
    <g clip-path="url(#peadff5a3e1)">
     <use style="fill:#ff0000;stroke:#000000;" x="96.04858" xlink:href="#C0_0_36b307fa56" y="126.30831"/>
    </g>
    <g clip-path="url(#peadff5a3e1)">
     <use style="fill:#ff0000;stroke:#000000;" x="96.04858" xlink:href="#C0_0_36b307fa56" y="85.126491"/>
    </g>
    <g clip-path="url(#peadff5a3e1)">
     <use style="fill:#00ff00;stroke:#000000;" x="256.684943" xlink:href="#C0_0_36b307fa56" y="151.017401"/>
    </g>
    <g clip-path="url(#peadff5a3e1)">
     <use style="fill:#00ff00;stroke:#000000;" x="273.594034" xlink:href="#C0_0_36b307fa56" y="118.071946"/>
    </g>
    <g clip-path="url(#peadff5a3e1)">
     <use style="fill:#0000ff;stroke:#000000;" x="197.503125" xlink:href="#C0_0_36b307fa56" y="134.544673"/>
    </g>
    <g clip-path="url(#peadff5a3e1)">
     <use style="fill:#00ff00;stroke:#000000;" x="146.775852" xlink:href="#C0_0_36b307fa56" y="183.962855"/>
    </g>
    <g clip-path="url(#peadff5a3e1)">
     <use style="fill:#00ff00;stroke:#000000;" x="155.230398" xlink:href="#C0_0_36b307fa56" y="175.726491"/>
    </g>
    <g clip-path="url(#peadff5a3e1)">
     <use style="fill:#0000ff;stroke:#000000;" x="256.684943" xlink:href="#C0_0_36b307fa56" y="134.544673"/>
    </g>
    <g clip-path="url(#peadff5a3e1)">
     <use style="fill:#0000ff;stroke:#000000;" x="265.139489" xlink:href="#C0_0_36b307fa56" y="118.071946"/>
    </g>
    <g clip-path="url(#peadff5a3e1)">
     <use style="fill:#0000ff;stroke:#000000;" x="332.775852" xlink:href="#C0_0_36b307fa56" y="167.490128"/>
    </g>
    <g clip-path="url(#peadff5a3e1)">
     <use style="fill:#ff0000;stroke:#000000;" x="104.503125" xlink:href="#C0_0_36b307fa56" y="101.599219"/>
    </g>
    <g clip-path="url(#peadff5a3e1)">
     <use style="fill:#0000ff;stroke:#000000;" x="248.230398" xlink:href="#C0_0_36b307fa56" y="109.835582"/>
    </g>
   </g>
   <g id="matplotlib.axis_1">
    <g id="xtick_1">
     <g id="line2d_1">
      <defs>
       <path d="M 0 0 
L 0 3.5 
" id="ma8dfde701c" style="stroke:#000000;stroke-width:0.8;"/>
      </defs>
      <g>
       <use style="stroke:#000000;stroke-width:0.8;" x="62.230398" xlink:href="#ma8dfde701c" y="226.791946"/>
      </g>
     </g>
     <g id="text_1">
      <!-- 4.5 -->
      <g transform="translate(54.278835 241.390384)scale(0.1 -0.1)">
       <defs>
        <path d="M 37.796875 64.3125 
L 12.890625 25.390625 
L 37.796875 25.390625 
z
M 35.203125 72.90625 
L 47.609375 72.90625 
L 47.609375 25.390625 
L 58.015625 25.390625 
L 58.015625 17.1875 
L 47.609375 17.1875 
L 47.609375 0 
L 37.796875 0 
L 37.796875 17.1875 
L 4.890625 17.1875 
L 4.890625 26.703125 
z
" id="DejaVuSans-52"/>
        <path d="M 10.6875 12.40625 
L 21 12.40625 
L 21 0 
L 10.6875 0 
z
" id="DejaVuSans-46"/>
        <path d="M 10.796875 72.90625 
L 49.515625 72.90625 
L 49.515625 64.59375 
L 19.828125 64.59375 
L 19.828125 46.734375 
Q 21.96875 47.46875 24.109375 47.828125 
Q 26.265625 48.1875 28.421875 48.1875 
Q 40.625 48.1875 47.75 41.5 
Q 54.890625 34.8125 54.890625 23.390625 
Q 54.890625 11.625 47.5625 5.09375 
Q 40.234375 -1.421875 26.90625 -1.421875 
Q 22.3125 -1.421875 17.546875 -0.640625 
Q 12.796875 0.140625 7.71875 1.703125 
L 7.71875 11.625 
Q 12.109375 9.234375 16.796875 8.0625 
Q 21.484375 6.890625 26.703125 6.890625 
Q 35.15625 6.890625 40.078125 11.328125 
Q 45.015625 15.765625 45.015625 23.390625 
Q 45.015625 31 40.078125 35.4375 
Q 35.15625 39.890625 26.703125 39.890625 
Q 22.75 39.890625 18.8125 39.015625 
Q 14.890625 38.140625 10.796875 36.28125 
z
" id="DejaVuSans-53"/>
       </defs>
       <use xlink:href="#DejaVuSans-52"/>
       <use x="63.623047" xlink:href="#DejaVuSans-46"/>
       <use x="95.410156" xlink:href="#DejaVuSans-53"/>
      </g>
     </g>
    </g>
    <g id="xtick_2">
     <g id="line2d_2">
      <g>
       <use style="stroke:#000000;stroke-width:0.8;" x="104.503125" xlink:href="#ma8dfde701c" y="226.791946"/>
      </g>
     </g>
     <g id="text_2">
      <!-- 5.0 -->
      <g transform="translate(96.551563 241.390384)scale(0.1 -0.1)">
       <defs>
        <path d="M 31.78125 66.40625 
Q 24.171875 66.40625 20.328125 58.90625 
Q 16.5 51.421875 16.5 36.375 
Q 16.5 21.390625 20.328125 13.890625 
Q 24.171875 6.390625 31.78125 6.390625 
Q 39.453125 6.390625 43.28125 13.890625 
Q 47.125 21.390625 47.125 36.375 
Q 47.125 51.421875 43.28125 58.90625 
Q 39.453125 66.40625 31.78125 66.40625 
z
M 31.78125 74.21875 
Q 44.046875 74.21875 50.515625 64.515625 
Q 56.984375 54.828125 56.984375 36.375 
Q 56.984375 17.96875 50.515625 8.265625 
Q 44.046875 -1.421875 31.78125 -1.421875 
Q 19.53125 -1.421875 13.0625 8.265625 
Q 6.59375 17.96875 6.59375 36.375 
Q 6.59375 54.828125 13.0625 64.515625 
Q 19.53125 74.21875 31.78125 74.21875 
z
" id="DejaVuSans-48"/>
       </defs>
       <use xlink:href="#DejaVuSans-53"/>
       <use x="63.623047" xlink:href="#DejaVuSans-46"/>
       <use x="95.410156" xlink:href="#DejaVuSans-48"/>
      </g>
     </g>
    </g>
    <g id="xtick_3">
     <g id="line2d_3">
      <g>
       <use style="stroke:#000000;stroke-width:0.8;" x="146.775852" xlink:href="#ma8dfde701c" y="226.791946"/>
      </g>
     </g>
     <g id="text_3">
      <!-- 5.5 -->
      <g transform="translate(138.82429 241.390384)scale(0.1 -0.1)">
       <use xlink:href="#DejaVuSans-53"/>
       <use x="63.623047" xlink:href="#DejaVuSans-46"/>
       <use x="95.410156" xlink:href="#DejaVuSans-53"/>
      </g>
     </g>
    </g>
    <g id="xtick_4">
     <g id="line2d_4">
      <g>
       <use style="stroke:#000000;stroke-width:0.8;" x="189.04858" xlink:href="#ma8dfde701c" y="226.791946"/>
      </g>
     </g>
     <g id="text_4">
      <!-- 6.0 -->
      <g transform="translate(181.097017 241.390384)scale(0.1 -0.1)">
       <defs>
        <path d="M 33.015625 40.375 
Q 26.375 40.375 22.484375 35.828125 
Q 18.609375 31.296875 18.609375 23.390625 
Q 18.609375 15.53125 22.484375 10.953125 
Q 26.375 6.390625 33.015625 6.390625 
Q 39.65625 6.390625 43.53125 10.953125 
Q 47.40625 15.53125 47.40625 23.390625 
Q 47.40625 31.296875 43.53125 35.828125 
Q 39.65625 40.375 33.015625 40.375 
z
M 52.59375 71.296875 
L 52.59375 62.3125 
Q 48.875 64.0625 45.09375 64.984375 
Q 41.3125 65.921875 37.59375 65.921875 
Q 27.828125 65.921875 22.671875 59.328125 
Q 17.53125 52.734375 16.796875 39.40625 
Q 19.671875 43.65625 24.015625 45.921875 
Q 28.375 48.1875 33.59375 48.1875 
Q 44.578125 48.1875 50.953125 41.515625 
Q 57.328125 34.859375 57.328125 23.390625 
Q 57.328125 12.15625 50.6875 5.359375 
Q 44.046875 -1.421875 33.015625 -1.421875 
Q 20.359375 -1.421875 13.671875 8.265625 
Q 6.984375 17.96875 6.984375 36.375 
Q 6.984375 53.65625 15.1875 63.9375 
Q 23.390625 74.21875 37.203125 74.21875 
Q 40.921875 74.21875 44.703125 73.484375 
Q 48.484375 72.75 52.59375 71.296875 
z
" id="DejaVuSans-54"/>
       </defs>
       <use xlink:href="#DejaVuSans-54"/>
       <use x="63.623047" xlink:href="#DejaVuSans-46"/>
       <use x="95.410156" xlink:href="#DejaVuSans-48"/>
      </g>
     </g>
    </g>
    <g id="xtick_5">
     <g id="line2d_5">
      <g>
       <use style="stroke:#000000;stroke-width:0.8;" x="231.321307" xlink:href="#ma8dfde701c" y="226.791946"/>
      </g>
     </g>
     <g id="text_5">
      <!-- 6.5 -->
      <g transform="translate(223.369744 241.390384)scale(0.1 -0.1)">
       <use xlink:href="#DejaVuSans-54"/>
       <use x="63.623047" xlink:href="#DejaVuSans-46"/>
       <use x="95.410156" xlink:href="#DejaVuSans-53"/>
      </g>
     </g>
    </g>
    <g id="xtick_6">
     <g id="line2d_6">
      <g>
       <use style="stroke:#000000;stroke-width:0.8;" x="273.594034" xlink:href="#ma8dfde701c" y="226.791946"/>
      </g>
     </g>
     <g id="text_6">
      <!-- 7.0 -->
      <g transform="translate(265.642472 241.390384)scale(0.1 -0.1)">
       <defs>
        <path d="M 8.203125 72.90625 
L 55.078125 72.90625 
L 55.078125 68.703125 
L 28.609375 0 
L 18.3125 0 
L 43.21875 64.59375 
L 8.203125 64.59375 
z
" id="DejaVuSans-55"/>
       </defs>
       <use xlink:href="#DejaVuSans-55"/>
       <use x="63.623047" xlink:href="#DejaVuSans-46"/>
       <use x="95.410156" xlink:href="#DejaVuSans-48"/>
      </g>
     </g>
    </g>
    <g id="xtick_7">
     <g id="line2d_7">
      <g>
       <use style="stroke:#000000;stroke-width:0.8;" x="315.866761" xlink:href="#ma8dfde701c" y="226.791946"/>
      </g>
     </g>
     <g id="text_7">
      <!-- 7.5 -->
      <g transform="translate(307.915199 241.390384)scale(0.1 -0.1)">
       <use xlink:href="#DejaVuSans-55"/>
       <use x="63.623047" xlink:href="#DejaVuSans-46"/>
       <use x="95.410156" xlink:href="#DejaVuSans-53"/>
      </g>
     </g>
    </g>
    <g id="xtick_8">
     <g id="line2d_8">
      <g>
       <use style="stroke:#000000;stroke-width:0.8;" x="358.139489" xlink:href="#ma8dfde701c" y="226.791946"/>
      </g>
     </g>
     <g id="text_8">
      <!-- 8.0 -->
      <g transform="translate(350.187926 241.390384)scale(0.1 -0.1)">
       <defs>
        <path d="M 31.78125 34.625 
Q 24.75 34.625 20.71875 30.859375 
Q 16.703125 27.09375 16.703125 20.515625 
Q 16.703125 13.921875 20.71875 10.15625 
Q 24.75 6.390625 31.78125 6.390625 
Q 38.8125 6.390625 42.859375 10.171875 
Q 46.921875 13.96875 46.921875 20.515625 
Q 46.921875 27.09375 42.890625 30.859375 
Q 38.875 34.625 31.78125 34.625 
z
M 21.921875 38.8125 
Q 15.578125 40.375 12.03125 44.71875 
Q 8.5 49.078125 8.5 55.328125 
Q 8.5 64.0625 14.71875 69.140625 
Q 20.953125 74.21875 31.78125 74.21875 
Q 42.671875 74.21875 48.875 69.140625 
Q 55.078125 64.0625 55.078125 55.328125 
Q 55.078125 49.078125 51.53125 44.71875 
Q 48 40.375 41.703125 38.8125 
Q 48.828125 37.15625 52.796875 32.3125 
Q 56.78125 27.484375 56.78125 20.515625 
Q 56.78125 9.90625 50.3125 4.234375 
Q 43.84375 -1.421875 31.78125 -1.421875 
Q 19.734375 -1.421875 13.25 4.234375 
Q 6.78125 9.90625 6.78125 20.515625 
Q 6.78125 27.484375 10.78125 32.3125 
Q 14.796875 37.15625 21.921875 38.8125 
z
M 18.3125 54.390625 
Q 18.3125 48.734375 21.84375 45.5625 
Q 25.390625 42.390625 31.78125 42.390625 
Q 38.140625 42.390625 41.71875 45.5625 
Q 45.3125 48.734375 45.3125 54.390625 
Q 45.3125 60.0625 41.71875 63.234375 
Q 38.140625 66.40625 31.78125 66.40625 
Q 25.390625 66.40625 21.84375 63.234375 
Q 18.3125 60.0625 18.3125 54.390625 
z
" id="DejaVuSans-56"/>
       </defs>
       <use xlink:href="#DejaVuSans-56"/>
       <use x="63.623047" xlink:href="#DejaVuSans-46"/>
       <use x="95.410156" xlink:href="#DejaVuSans-48"/>
      </g>
     </g>
    </g>
   </g>
   <g id="matplotlib.axis_2">
    <g id="ytick_1">
     <g id="line2d_9">
      <defs>
       <path d="M 0 0 
L -3.5 0 
" id="meab103ac5e" style="stroke:#000000;stroke-width:0.8;"/>
      </defs>
      <g>
       <use style="stroke:#000000;stroke-width:0.8;" x="30.103125" xlink:href="#meab103ac5e" y="216.90831"/>
      </g>
     </g>
     <g id="text_9">
      <!-- 2.0 -->
      <g transform="translate(7.2 220.707528)scale(0.1 -0.1)">
       <defs>
        <path d="M 19.1875 8.296875 
L 53.609375 8.296875 
L 53.609375 0 
L 7.328125 0 
L 7.328125 8.296875 
Q 12.9375 14.109375 22.625 23.890625 
Q 32.328125 33.6875 34.8125 36.53125 
Q 39.546875 41.84375 41.421875 45.53125 
Q 43.3125 49.21875 43.3125 52.78125 
Q 43.3125 58.59375 39.234375 62.25 
Q 35.15625 65.921875 28.609375 65.921875 
Q 23.96875 65.921875 18.8125 64.3125 
Q 13.671875 62.703125 7.8125 59.421875 
L 7.8125 69.390625 
Q 13.765625 71.78125 18.9375 73 
Q 24.125 74.21875 28.421875 74.21875 
Q 39.75 74.21875 46.484375 68.546875 
Q 53.21875 62.890625 53.21875 53.421875 
Q 53.21875 48.921875 51.53125 44.890625 
Q 49.859375 40.875 45.40625 35.40625 
Q 44.1875 33.984375 37.640625 27.21875 
Q 31.109375 20.453125 19.1875 8.296875 
z
" id="DejaVuSans-50"/>
       </defs>
       <use xlink:href="#DejaVuSans-50"/>
       <use x="63.623047" xlink:href="#DejaVuSans-46"/>
       <use x="95.410156" xlink:href="#DejaVuSans-48"/>
      </g>
     </g>
    </g>
    <g id="ytick_2">
     <g id="line2d_10">
      <g>
       <use style="stroke:#000000;stroke-width:0.8;" x="30.103125" xlink:href="#meab103ac5e" y="175.726491"/>
      </g>
     </g>
     <g id="text_10">
      <!-- 2.5 -->
      <g transform="translate(7.2 179.52571)scale(0.1 -0.1)">
       <use xlink:href="#DejaVuSans-50"/>
       <use x="63.623047" xlink:href="#DejaVuSans-46"/>
       <use x="95.410156" xlink:href="#DejaVuSans-53"/>
      </g>
     </g>
    </g>
    <g id="ytick_3">
     <g id="line2d_11">
      <g>
       <use style="stroke:#000000;stroke-width:0.8;" x="30.103125" xlink:href="#meab103ac5e" y="134.544673"/>
      </g>
     </g>
     <g id="text_11">
      <!-- 3.0 -->
      <g transform="translate(7.2 138.343892)scale(0.1 -0.1)">
       <defs>
        <path d="M 40.578125 39.3125 
Q 47.65625 37.796875 51.625 33 
Q 55.609375 28.21875 55.609375 21.1875 
Q 55.609375 10.40625 48.1875 4.484375 
Q 40.765625 -1.421875 27.09375 -1.421875 
Q 22.515625 -1.421875 17.65625 -0.515625 
Q 12.796875 0.390625 7.625 2.203125 
L 7.625 11.71875 
Q 11.71875 9.328125 16.59375 8.109375 
Q 21.484375 6.890625 26.8125 6.890625 
Q 36.078125 6.890625 40.9375 10.546875 
Q 45.796875 14.203125 45.796875 21.1875 
Q 45.796875 27.640625 41.28125 31.265625 
Q 36.765625 34.90625 28.71875 34.90625 
L 20.21875 34.90625 
L 20.21875 43.015625 
L 29.109375 43.015625 
Q 36.375 43.015625 40.234375 45.921875 
Q 44.09375 48.828125 44.09375 54.296875 
Q 44.09375 59.90625 40.109375 62.90625 
Q 36.140625 65.921875 28.71875 65.921875 
Q 24.65625 65.921875 20.015625 65.03125 
Q 15.375 64.15625 9.8125 62.3125 
L 9.8125 71.09375 
Q 15.4375 72.65625 20.34375 73.4375 
Q 25.25 74.21875 29.59375 74.21875 
Q 40.828125 74.21875 47.359375 69.109375 
Q 53.90625 64.015625 53.90625 55.328125 
Q 53.90625 49.265625 50.4375 45.09375 
Q 46.96875 40.921875 40.578125 39.3125 
z
" id="DejaVuSans-51"/>
       </defs>
       <use xlink:href="#DejaVuSans-51"/>
       <use x="63.623047" xlink:href="#DejaVuSans-46"/>
       <use x="95.410156" xlink:href="#DejaVuSans-48"/>
      </g>
     </g>
    </g>
    <g id="ytick_4">
     <g id="line2d_12">
      <g>
       <use style="stroke:#000000;stroke-width:0.8;" x="30.103125" xlink:href="#meab103ac5e" y="93.362855"/>
      </g>
     </g>
     <g id="text_12">
      <!-- 3.5 -->
      <g transform="translate(7.2 97.162074)scale(0.1 -0.1)">
       <use xlink:href="#DejaVuSans-51"/>
       <use x="63.623047" xlink:href="#DejaVuSans-46"/>
       <use x="95.410156" xlink:href="#DejaVuSans-53"/>
      </g>
     </g>
    </g>
    <g id="ytick_5">
     <g id="line2d_13">
      <g>
       <use style="stroke:#000000;stroke-width:0.8;" x="30.103125" xlink:href="#meab103ac5e" y="52.181037"/>
      </g>
     </g>
     <g id="text_13">
      <!-- 4.0 -->
      <g transform="translate(7.2 55.980256)scale(0.1 -0.1)">
       <use xlink:href="#DejaVuSans-52"/>
       <use x="63.623047" xlink:href="#DejaVuSans-46"/>
       <use x="95.410156" xlink:href="#DejaVuSans-48"/>
      </g>
     </g>
    </g>
    <g id="ytick_6">
     <g id="line2d_14">
      <g>
       <use style="stroke:#000000;stroke-width:0.8;" x="30.103125" xlink:href="#meab103ac5e" y="10.999219"/>
      </g>
     </g>
     <g id="text_14">
      <!-- 4.5 -->
      <g transform="translate(7.2 14.798437)scale(0.1 -0.1)">
       <use xlink:href="#DejaVuSans-52"/>
       <use x="63.623047" xlink:href="#DejaVuSans-46"/>
       <use x="95.410156" xlink:href="#DejaVuSans-53"/>
      </g>
     </g>
    </g>
   </g>
   <g id="patch_3">
    <path d="M 30.103125 226.791946 
L 30.103125 9.351946 
" style="fill:none;stroke:#000000;stroke-linecap:square;stroke-linejoin:miter;stroke-width:0.8;"/>
   </g>
   <g id="patch_4">
    <path d="M 364.903125 226.791946 
L 364.903125 9.351946 
" style="fill:none;stroke:#000000;stroke-linecap:square;stroke-linejoin:miter;stroke-width:0.8;"/>
   </g>
   <g id="patch_5">
    <path d="M 30.103125 226.791946 
L 364.903125 226.791946 
" style="fill:none;stroke:#000000;stroke-linecap:square;stroke-linejoin:miter;stroke-width:0.8;"/>
   </g>
   <g id="patch_6">
    <path d="M 30.103125 9.351946 
L 364.903125 9.351946 
" style="fill:none;stroke:#000000;stroke-linecap:square;stroke-linejoin:miter;stroke-width:0.8;"/>
   </g>
  </g>
 </g>
 <defs>
  <clipPath id="peadff5a3e1">
   <rect height="217.44" width="334.8" x="30.103125" y="9.351946"/>
  </clipPath>
 </defs>
</svg>
