<?xml version="1.0" encoding="utf-8" standalone="no"?>
<!DOCTYPE svg PUBLIC "-//W3C//DTD SVG 1.1//EN"
  "http://www.w3.org/Graphics/SVG/1.1/DTD/svg11.dtd">
<!-- Created with matplotlib (https://matplotlib.org/) -->
<svg height="248.518125pt" version="1.1" viewBox="0 0 365.067738 248.518125" width="365.067738pt" xmlns="http://www.w3.org/2000/svg" xmlns:xlink="http://www.w3.org/1999/xlink">
 <metadata>
  <rdf:RDF xmlns:cc="http://creativecommons.org/ns#" xmlns:dc="http://purl.org/dc/elements/1.1/" xmlns:rdf="http://www.w3.org/1999/02/22-rdf-syntax-ns#">
   <cc:Work>
    <dc:type rdf:resource="http://purl.org/dc/dcmitype/StillImage"/>
    <dc:date>2020-09-15T11:57:19.604967</dc:date>
    <dc:format>image/svg+xml</dc:format>
    <dc:creator>
     <cc:Agent>
      <dc:title>Matplotlib v3.3.1, https://matplotlib.org/</dc:title>
     </cc:Agent>
    </dc:creator>
   </cc:Work>
  </rdf:RDF>
 </metadata>
 <defs>
  <style type="text/css">*{stroke-linecap:butt;stroke-linejoin:round;}</style>
 </defs>
 <g id="figure_1">
  <g id="patch_1">
   <path d="M 0 248.518125 
L 365.067738 248.518125 
L 365.067738 0 
L 0 0 
z
" style="fill:none;"/>
  </g>
  <g id="axes_1">
   <g id="patch_2">
    <path d="M 20.5625 224.64 
L 355.3625 224.64 
L 355.3625 7.2 
L 20.5625 7.2 
z
" style="fill:#ffffff;"/>
   </g>
   <g id="PathCollection_1">
    <defs>
     <path d="M 0 3 
C 0.795609 3 1.55874 2.683901 2.12132 2.12132 
C 2.683901 1.55874 3 0.795609 3 0 
C 3 -0.795609 2.683901 -1.55874 2.12132 -2.12132 
C 1.55874 -2.683901 0.795609 -3 0 -3 
C -0.795609 -3 -1.55874 -2.683901 -2.12132 -2.12132 
C -2.683901 -1.55874 -3 -0.795609 -3 0 
C -3 0.795609 -2.683901 1.55874 -2.12132 2.12132 
C -1.55874 2.683901 -0.795609 3 0 3 
z
" id="mad3e372289" style="stroke:#ff0000;"/>
    </defs>
    <g clip-path="url(#p2884af8596)">
     <use style="fill:#ff0000;stroke:#ff0000;" x="261.887518" xlink:href="#mad3e372289" y="104.393265"/>
     <use style="fill:#ff0000;stroke:#ff0000;" x="228.526957" xlink:href="#mad3e372289" y="87.135242"/>
     <use style="fill:#ff0000;stroke:#ff0000;" x="271.348997" xlink:href="#mad3e372289" y="28.645282"/>
     <use style="fill:#ff0000;stroke:#ff0000;" x="271.074757" xlink:href="#mad3e372289" y="65.582646"/>
     <use style="fill:#ff0000;stroke:#ff0000;" x="227.157902" xlink:href="#mad3e372289" y="33.632584"/>
     <use style="fill:#ff0000;stroke:#ff0000;" x="296.281662" xlink:href="#mad3e372289" y="45.809661"/>
     <use style="fill:#ff0000;stroke:#ff0000;" x="254.463479" xlink:href="#mad3e372289" y="87.403788"/>
     <use style="fill:#ff0000;stroke:#ff0000;" x="242.716803" xlink:href="#mad3e372289" y="69.396814"/>
     <use style="fill:#ff0000;stroke:#ff0000;" x="174.854256" xlink:href="#mad3e372289" y="42.351985"/>
     <use style="fill:#ff0000;stroke:#ff0000;" x="289.058859" xlink:href="#mad3e372289" y="51.643525"/>
     <use style="fill:#ff0000;stroke:#ff0000;" x="252.235026" xlink:href="#mad3e372289" y="75.942933"/>
     <use style="fill:#ff0000;stroke:#ff0000;" x="320.544002" xlink:href="#mad3e372289" y="94.850024"/>
     <use style="fill:#ff0000;stroke:#ff0000;" x="337.404532" xlink:href="#mad3e372289" y="71.496976"/>
     <use style="fill:#ff0000;stroke:#ff0000;" x="239.383237" xlink:href="#mad3e372289" y="23.325355"/>
     <use style="fill:#ff0000;stroke:#ff0000;" x="296.63397" xlink:href="#mad3e372289" y="75.55261"/>
     <use style="fill:#ff0000;stroke:#ff0000;" x="205.95319" xlink:href="#mad3e372289" y="48.557675"/>
     <use style="fill:#ff0000;stroke:#ff0000;" x="319.606943" xlink:href="#mad3e372289" y="41.841429"/>
     <use style="fill:#ff0000;stroke:#ff0000;" x="244.576257" xlink:href="#mad3e372289" y="62.941775"/>
     <use style="fill:#ff0000;stroke:#ff0000;" x="245.656027" xlink:href="#mad3e372289" y="77.154179"/>
     <use style="fill:#ff0000;stroke:#ff0000;" x="257.353952" xlink:href="#mad3e372289" y="45.742029"/>
     <use style="fill:#ff0000;stroke:#ff0000;" x="278.005339" xlink:href="#mad3e372289" y="95.238916"/>
     <use style="fill:#ff0000;stroke:#ff0000;" x="306.693546" xlink:href="#mad3e372289" y="74.208267"/>
     <use style="fill:#ff0000;stroke:#ff0000;" x="235.793237" xlink:href="#mad3e372289" y="37.753129"/>
     <use style="fill:#ff0000;stroke:#ff0000;" x="248.832165" xlink:href="#mad3e372289" y="42.468426"/>
     <use style="fill:#ff0000;stroke:#ff0000;" x="340.144318" xlink:href="#mad3e372289" y="55.508037"/>
     <use style="fill:#ff0000;stroke:#ff0000;" x="313.440672" xlink:href="#mad3e372289" y="45.837274"/>
     <use style="fill:#ff0000;stroke:#ff0000;" x="243.336051" xlink:href="#mad3e372289" y="76.054339"/>
     <use style="fill:#ff0000;stroke:#ff0000;" x="279.194028" xlink:href="#mad3e372289" y="48.394477"/>
     <use style="fill:#ff0000;stroke:#ff0000;" x="253.038595" xlink:href="#mad3e372289" y="53.699558"/>
     <use style="fill:#ff0000;stroke:#ff0000;" x="229.932522" xlink:href="#mad3e372289" y="55.046901"/>
     <use style="fill:#ff0000;stroke:#ff0000;" x="323.467378" xlink:href="#mad3e372289" y="104.874739"/>
     <use style="fill:#ff0000;stroke:#ff0000;" x="307.677934" xlink:href="#mad3e372289" y="79.448891"/>
     <use style="fill:#ff0000;stroke:#ff0000;" x="305.685558" xlink:href="#mad3e372289" y="87.340087"/>
     <use style="fill:#ff0000;stroke:#ff0000;" x="263.447776" xlink:href="#mad3e372289" y="84.569669"/>
     <use style="fill:#ff0000;stroke:#ff0000;" x="285.153598" xlink:href="#mad3e372289" y="91.048897"/>
     <use style="fill:#ff0000;stroke:#ff0000;" x="306.973403" xlink:href="#mad3e372289" y="17.083636"/>
     <use style="fill:#ff0000;stroke:#ff0000;" x="248.345107" xlink:href="#mad3e372289" y="100.539375"/>
     <use style="fill:#ff0000;stroke:#ff0000;" x="235.368932" xlink:href="#mad3e372289" y="58.458608"/>
     <use style="fill:#ff0000;stroke:#ff0000;" x="263.427329" xlink:href="#mad3e372289" y="75.519812"/>
     <use style="fill:#ff0000;stroke:#ff0000;" x="245.948707" xlink:href="#mad3e372289" y="44.372928"/>
     <use style="fill:#ff0000;stroke:#ff0000;" x="242.334089" xlink:href="#mad3e372289" y="49.977268"/>
     <use style="fill:#ff0000;stroke:#ff0000;" x="205.16154" xlink:href="#mad3e372289" y="100.563594"/>
     <use style="fill:#ff0000;stroke:#ff0000;" x="339.175129" xlink:href="#mad3e372289" y="88.37524"/>
     <use style="fill:#ff0000;stroke:#ff0000;" x="272.331022" xlink:href="#mad3e372289" y="83.010161"/>
     <use style="fill:#ff0000;stroke:#ff0000;" x="254.120292" xlink:href="#mad3e372289" y="68.162722"/>
     <use style="fill:#ff0000;stroke:#ff0000;" x="223.90763" xlink:href="#mad3e372289" y="48.611851"/>
     <use style="fill:#ff0000;stroke:#ff0000;" x="266.568126" xlink:href="#mad3e372289" y="63.762571"/>
     <use style="fill:#ff0000;stroke:#ff0000;" x="285.896071" xlink:href="#mad3e372289" y="69.998251"/>
     <use style="fill:#ff0000;stroke:#ff0000;" x="267.235022" xlink:href="#mad3e372289" y="74.55473"/>
     <use style="fill:#ff0000;stroke:#ff0000;" x="257.669402" xlink:href="#mad3e372289" y="67.376702"/>
    </g>
   </g>
   <g id="PathCollection_2">
    <defs>
     <path d="M 0 3 
C 0.795609 3 1.55874 2.683901 2.12132 2.12132 
C 2.683901 1.55874 3 0.795609 3 0 
C 3 -0.795609 2.683901 -1.55874 2.12132 -2.12132 
C 1.55874 -2.683901 0.795609 -3 0 -3 
C -0.795609 -3 -1.55874 -2.683901 -2.12132 -2.12132 
C -2.683901 -1.55874 -3 -0.795609 -3 0 
C -3 0.795609 -2.683901 1.55874 -2.12132 2.12132 
C -1.55874 2.683901 -0.795609 3 0 3 
z
" id="mfb507e08f9" style="stroke:#0000ff;"/>
    </defs>
    <g clip-path="url(#p2884af8596)">
     <use style="fill:#0000ff;stroke:#0000ff;" x="120.711233" xlink:href="#mfb507e08f9" y="151.064302"/>
     <use style="fill:#0000ff;stroke:#0000ff;" x="111.656211" xlink:href="#mfb507e08f9" y="172.524741"/>
     <use style="fill:#0000ff;stroke:#0000ff;" x="35.780682" xlink:href="#mfb507e08f9" y="172.767178"/>
     <use style="fill:#0000ff;stroke:#0000ff;" x="156.774705" xlink:href="#mfb507e08f9" y="115.644829"/>
     <use style="fill:#0000ff;stroke:#0000ff;" x="112.828418" xlink:href="#mfb507e08f9" y="150.128623"/>
     <use style="fill:#0000ff;stroke:#0000ff;" x="236.846729" xlink:href="#mfb507e08f9" y="162.881333"/>
     <use style="fill:#0000ff;stroke:#0000ff;" x="86.009964" xlink:href="#mfb507e08f9" y="158.627559"/>
     <use style="fill:#0000ff;stroke:#0000ff;" x="160.148267" xlink:href="#mfb507e08f9" y="128.253332"/>
     <use style="fill:#0000ff;stroke:#0000ff;" x="142.755799" xlink:href="#mfb507e08f9" y="136.93496"/>
     <use style="fill:#0000ff;stroke:#0000ff;" x="115.45678" xlink:href="#mfb507e08f9" y="160.911549"/>
     <use style="fill:#0000ff;stroke:#0000ff;" x="165.572917" xlink:href="#mfb507e08f9" y="157.067889"/>
     <use style="fill:#0000ff;stroke:#0000ff;" x="159.140457" xlink:href="#mfb507e08f9" y="157.382928"/>
     <use style="fill:#0000ff;stroke:#0000ff;" x="163.399561" xlink:href="#mfb507e08f9" y="195.108438"/>
     <use style="fill:#0000ff;stroke:#0000ff;" x="79.796041" xlink:href="#mfb507e08f9" y="181.195993"/>
     <use style="fill:#0000ff;stroke:#0000ff;" x="102.902993" xlink:href="#mfb507e08f9" y="136.749208"/>
     <use style="fill:#0000ff;stroke:#0000ff;" x="127.520821" xlink:href="#mfb507e08f9" y="158.116929"/>
     <use style="fill:#0000ff;stroke:#0000ff;" x="157.061913" xlink:href="#mfb507e08f9" y="142.77705"/>
     <use style="fill:#0000ff;stroke:#0000ff;" x="125.230532" xlink:href="#mfb507e08f9" y="137.220978"/>
     <use style="fill:#0000ff;stroke:#0000ff;" x="122.883986" xlink:href="#mfb507e08f9" y="202.341641"/>
     <use style="fill:#0000ff;stroke:#0000ff;" x="173.544828" xlink:href="#mfb507e08f9" y="178.838622"/>
     <use style="fill:#0000ff;stroke:#0000ff;" x="153.958178" xlink:href="#mfb507e08f9" y="142.595649"/>
     <use style="fill:#0000ff;stroke:#0000ff;" x="160.458296" xlink:href="#mfb507e08f9" y="169.225028"/>
     <use style="fill:#0000ff;stroke:#0000ff;" x="173.549827" xlink:href="#mfb507e08f9" y="139.62514"/>
     <use style="fill:#0000ff;stroke:#0000ff;" x="152.51149" xlink:href="#mfb507e08f9" y="116.408208"/>
     <use style="fill:#0000ff;stroke:#0000ff;" x="176.341206" xlink:href="#mfb507e08f9" y="113.97687"/>
     <use style="fill:#0000ff;stroke:#0000ff;" x="78.906926" xlink:href="#mfb507e08f9" y="172.839472"/>
     <use style="fill:#0000ff;stroke:#0000ff;" x="183.411205" xlink:href="#mfb507e08f9" y="167.494033"/>
     <use style="fill:#0000ff;stroke:#0000ff;" x="136.152459" xlink:href="#mfb507e08f9" y="141.620071"/>
     <use style="fill:#0000ff;stroke:#0000ff;" x="130.864327" xlink:href="#mfb507e08f9" y="125.88635"/>
     <use style="fill:#0000ff;stroke:#0000ff;" x="101.96332" xlink:href="#mfb507e08f9" y="150.469918"/>
     <use style="fill:#0000ff;stroke:#0000ff;" x="185.685019" xlink:href="#mfb507e08f9" y="158.774601"/>
     <use style="fill:#0000ff;stroke:#0000ff;" x="87.442517" xlink:href="#mfb507e08f9" y="164.861385"/>
     <use style="fill:#0000ff;stroke:#0000ff;" x="102.596117" xlink:href="#mfb507e08f9" y="129.925183"/>
     <use style="fill:#0000ff;stroke:#0000ff;" x="119.329699" xlink:href="#mfb507e08f9" y="183.800193"/>
     <use style="fill:#0000ff;stroke:#0000ff;" x="84.503322" xlink:href="#mfb507e08f9" y="214.756364"/>
     <use style="fill:#0000ff;stroke:#0000ff;" x="145.009936" xlink:href="#mfb507e08f9" y="155.582081"/>
     <use style="fill:#0000ff;stroke:#0000ff;" x="149.303144" xlink:href="#mfb507e08f9" y="175.408561"/>
     <use style="fill:#0000ff;stroke:#0000ff;" x="66.527962" xlink:href="#mfb507e08f9" y="154.571453"/>
     <use style="fill:#0000ff;stroke:#0000ff;" x="71.443859" xlink:href="#mfb507e08f9" y="112.994255"/>
     <use style="fill:#0000ff;stroke:#0000ff;" x="166.851392" xlink:href="#mfb507e08f9" y="155.471506"/>
     <use style="fill:#0000ff;stroke:#0000ff;" x="102.973838" xlink:href="#mfb507e08f9" y="177.493745"/>
     <use style="fill:#0000ff;stroke:#0000ff;" x="115.343457" xlink:href="#mfb507e08f9" y="186.600026"/>
     <use style="fill:#0000ff;stroke:#0000ff;" x="95.552501" xlink:href="#mfb507e08f9" y="192.137938"/>
     <use style="fill:#0000ff;stroke:#0000ff;" x="115.003742" xlink:href="#mfb507e08f9" y="163.569855"/>
     <use style="fill:#0000ff;stroke:#0000ff;" x="168.170117" xlink:href="#mfb507e08f9" y="95.714293"/>
     <use style="fill:#0000ff;stroke:#0000ff;" x="122.148855" xlink:href="#mfb507e08f9" y="153.13667"/>
     <use style="fill:#0000ff;stroke:#0000ff;" x="172.772036" xlink:href="#mfb507e08f9" y="122.770953"/>
     <use style="fill:#0000ff;stroke:#0000ff;" x="97.922711" xlink:href="#mfb507e08f9" y="153.734538"/>
     <use style="fill:#0000ff;stroke:#0000ff;" x="156.619312" xlink:href="#mfb507e08f9" y="150.064883"/>
     <use style="fill:#0000ff;stroke:#0000ff;" x="118.245437" xlink:href="#mfb507e08f9" y="156.349539"/>
    </g>
   </g>
   <g id="matplotlib.axis_1">
    <g id="xtick_1">
     <g id="line2d_1">
      <defs>
       <path d="M 0 0 
L 0 3.5 
" id="m443d06d70a" style="stroke:#000000;stroke-width:0.8;"/>
      </defs>
      <g>
       <use style="stroke:#000000;stroke-width:0.8;" x="50.54433" xlink:href="#m443d06d70a" y="224.64"/>
      </g>
     </g>
     <g id="text_1">
      <!-- 0.0 -->
      <g transform="translate(42.592767 239.238437)scale(0.1 -0.1)">
       <defs>
        <path d="M 31.78125 66.40625 
Q 24.171875 66.40625 20.328125 58.90625 
Q 16.5 51.421875 16.5 36.375 
Q 16.5 21.390625 20.328125 13.890625 
Q 24.171875 6.390625 31.78125 6.390625 
Q 39.453125 6.390625 43.28125 13.890625 
Q 47.125 21.390625 47.125 36.375 
Q 47.125 51.421875 43.28125 58.90625 
Q 39.453125 66.40625 31.78125 66.40625 
z
M 31.78125 74.21875 
Q 44.046875 74.21875 50.515625 64.515625 
Q 56.984375 54.828125 56.984375 36.375 
Q 56.984375 17.96875 50.515625 8.265625 
Q 44.046875 -1.421875 31.78125 -1.421875 
Q 19.53125 -1.421875 13.0625 8.265625 
Q 6.59375 17.96875 6.59375 36.375 
Q 6.59375 54.828125 13.0625 64.515625 
Q 19.53125 74.21875 31.78125 74.21875 
z
" id="DejaVuSans-48"/>
        <path d="M 10.6875 12.40625 
L 21 12.40625 
L 21 0 
L 10.6875 0 
z
" id="DejaVuSans-46"/>
       </defs>
       <use xlink:href="#DejaVuSans-48"/>
       <use x="63.623047" xlink:href="#DejaVuSans-46"/>
       <use x="95.410156" xlink:href="#DejaVuSans-48"/>
      </g>
     </g>
    </g>
    <g id="xtick_2">
     <g id="line2d_2">
      <g>
       <use style="stroke:#000000;stroke-width:0.8;" x="87.965811" xlink:href="#m443d06d70a" y="224.64"/>
      </g>
     </g>
     <g id="text_2">
      <!-- 0.5 -->
      <g transform="translate(80.014248 239.238437)scale(0.1 -0.1)">
       <defs>
        <path d="M 10.796875 72.90625 
L 49.515625 72.90625 
L 49.515625 64.59375 
L 19.828125 64.59375 
L 19.828125 46.734375 
Q 21.96875 47.46875 24.109375 47.828125 
Q 26.265625 48.1875 28.421875 48.1875 
Q 40.625 48.1875 47.75 41.5 
Q 54.890625 34.8125 54.890625 23.390625 
Q 54.890625 11.625 47.5625 5.09375 
Q 40.234375 -1.421875 26.90625 -1.421875 
Q 22.3125 -1.421875 17.546875 -0.640625 
Q 12.796875 0.140625 7.71875 1.703125 
L 7.71875 11.625 
Q 12.109375 9.234375 16.796875 8.0625 
Q 21.484375 6.890625 26.703125 6.890625 
Q 35.15625 6.890625 40.078125 11.328125 
Q 45.015625 15.765625 45.015625 23.390625 
Q 45.015625 31 40.078125 35.4375 
Q 35.15625 39.890625 26.703125 39.890625 
Q 22.75 39.890625 18.8125 39.015625 
Q 14.890625 38.140625 10.796875 36.28125 
z
" id="DejaVuSans-53"/>
       </defs>
       <use xlink:href="#DejaVuSans-48"/>
       <use x="63.623047" xlink:href="#DejaVuSans-46"/>
       <use x="95.410156" xlink:href="#DejaVuSans-53"/>
      </g>
     </g>
    </g>
    <g id="xtick_3">
     <g id="line2d_3">
      <g>
       <use style="stroke:#000000;stroke-width:0.8;" x="125.387291" xlink:href="#m443d06d70a" y="224.64"/>
      </g>
     </g>
     <g id="text_3">
      <!-- 1.0 -->
      <g transform="translate(117.435729 239.238437)scale(0.1 -0.1)">
       <defs>
        <path d="M 12.40625 8.296875 
L 28.515625 8.296875 
L 28.515625 63.921875 
L 10.984375 60.40625 
L 10.984375 69.390625 
L 28.421875 72.90625 
L 38.28125 72.90625 
L 38.28125 8.296875 
L 54.390625 8.296875 
L 54.390625 0 
L 12.40625 0 
z
" id="DejaVuSans-49"/>
       </defs>
       <use xlink:href="#DejaVuSans-49"/>
       <use x="63.623047" xlink:href="#DejaVuSans-46"/>
       <use x="95.410156" xlink:href="#DejaVuSans-48"/>
      </g>
     </g>
    </g>
    <g id="xtick_4">
     <g id="line2d_4">
      <g>
       <use style="stroke:#000000;stroke-width:0.8;" x="162.808772" xlink:href="#m443d06d70a" y="224.64"/>
      </g>
     </g>
     <g id="text_4">
      <!-- 1.5 -->
      <g transform="translate(154.85721 239.238437)scale(0.1 -0.1)">
       <use xlink:href="#DejaVuSans-49"/>
       <use x="63.623047" xlink:href="#DejaVuSans-46"/>
       <use x="95.410156" xlink:href="#DejaVuSans-53"/>
      </g>
     </g>
    </g>
    <g id="xtick_5">
     <g id="line2d_5">
      <g>
       <use style="stroke:#000000;stroke-width:0.8;" x="200.230253" xlink:href="#m443d06d70a" y="224.64"/>
      </g>
     </g>
     <g id="text_5">
      <!-- 2.0 -->
      <g transform="translate(192.27869 239.238437)scale(0.1 -0.1)">
       <defs>
        <path d="M 19.1875 8.296875 
L 53.609375 8.296875 
L 53.609375 0 
L 7.328125 0 
L 7.328125 8.296875 
Q 12.9375 14.109375 22.625 23.890625 
Q 32.328125 33.6875 34.8125 36.53125 
Q 39.546875 41.84375 41.421875 45.53125 
Q 43.3125 49.21875 43.3125 52.78125 
Q 43.3125 58.59375 39.234375 62.25 
Q 35.15625 65.921875 28.609375 65.921875 
Q 23.96875 65.921875 18.8125 64.3125 
Q 13.671875 62.703125 7.8125 59.421875 
L 7.8125 69.390625 
Q 13.765625 71.78125 18.9375 73 
Q 24.125 74.21875 28.421875 74.21875 
Q 39.75 74.21875 46.484375 68.546875 
Q 53.21875 62.890625 53.21875 53.421875 
Q 53.21875 48.921875 51.53125 44.890625 
Q 49.859375 40.875 45.40625 35.40625 
Q 44.1875 33.984375 37.640625 27.21875 
Q 31.109375 20.453125 19.1875 8.296875 
z
" id="DejaVuSans-50"/>
       </defs>
       <use xlink:href="#DejaVuSans-50"/>
       <use x="63.623047" xlink:href="#DejaVuSans-46"/>
       <use x="95.410156" xlink:href="#DejaVuSans-48"/>
      </g>
     </g>
    </g>
    <g id="xtick_6">
     <g id="line2d_6">
      <g>
       <use style="stroke:#000000;stroke-width:0.8;" x="237.651734" xlink:href="#m443d06d70a" y="224.64"/>
      </g>
     </g>
     <g id="text_6">
      <!-- 2.5 -->
      <g transform="translate(229.700171 239.238437)scale(0.1 -0.1)">
       <use xlink:href="#DejaVuSans-50"/>
       <use x="63.623047" xlink:href="#DejaVuSans-46"/>
       <use x="95.410156" xlink:href="#DejaVuSans-53"/>
      </g>
     </g>
    </g>
    <g id="xtick_7">
     <g id="line2d_7">
      <g>
       <use style="stroke:#000000;stroke-width:0.8;" x="275.073214" xlink:href="#m443d06d70a" y="224.64"/>
      </g>
     </g>
     <g id="text_7">
      <!-- 3.0 -->
      <g transform="translate(267.121652 239.238437)scale(0.1 -0.1)">
       <defs>
        <path d="M 40.578125 39.3125 
Q 47.65625 37.796875 51.625 33 
Q 55.609375 28.21875 55.609375 21.1875 
Q 55.609375 10.40625 48.1875 4.484375 
Q 40.765625 -1.421875 27.09375 -1.421875 
Q 22.515625 -1.421875 17.65625 -0.515625 
Q 12.796875 0.390625 7.625 2.203125 
L 7.625 11.71875 
Q 11.71875 9.328125 16.59375 8.109375 
Q 21.484375 6.890625 26.8125 6.890625 
Q 36.078125 6.890625 40.9375 10.546875 
Q 45.796875 14.203125 45.796875 21.1875 
Q 45.796875 27.640625 41.28125 31.265625 
Q 36.765625 34.90625 28.71875 34.90625 
L 20.21875 34.90625 
L 20.21875 43.015625 
L 29.109375 43.015625 
Q 36.375 43.015625 40.234375 45.921875 
Q 44.09375 48.828125 44.09375 54.296875 
Q 44.09375 59.90625 40.109375 62.90625 
Q 36.140625 65.921875 28.71875 65.921875 
Q 24.65625 65.921875 20.015625 65.03125 
Q 15.375 64.15625 9.8125 62.3125 
L 9.8125 71.09375 
Q 15.4375 72.65625 20.34375 73.4375 
Q 25.25 74.21875 29.59375 74.21875 
Q 40.828125 74.21875 47.359375 69.109375 
Q 53.90625 64.015625 53.90625 55.328125 
Q 53.90625 49.265625 50.4375 45.09375 
Q 46.96875 40.921875 40.578125 39.3125 
z
" id="DejaVuSans-51"/>
       </defs>
       <use xlink:href="#DejaVuSans-51"/>
       <use x="63.623047" xlink:href="#DejaVuSans-46"/>
       <use x="95.410156" xlink:href="#DejaVuSans-48"/>
      </g>
     </g>
    </g>
    <g id="xtick_8">
     <g id="line2d_8">
      <g>
       <use style="stroke:#000000;stroke-width:0.8;" x="312.494695" xlink:href="#m443d06d70a" y="224.64"/>
      </g>
     </g>
     <g id="text_8">
      <!-- 3.5 -->
      <g transform="translate(304.543133 239.238437)scale(0.1 -0.1)">
       <use xlink:href="#DejaVuSans-51"/>
       <use x="63.623047" xlink:href="#DejaVuSans-46"/>
       <use x="95.410156" xlink:href="#DejaVuSans-53"/>
      </g>
     </g>
    </g>
    <g id="xtick_9">
     <g id="line2d_9">
      <g>
       <use style="stroke:#000000;stroke-width:0.8;" x="349.916176" xlink:href="#m443d06d70a" y="224.64"/>
      </g>
     </g>
     <g id="text_9">
      <!-- 4.0 -->
      <g transform="translate(341.964613 239.238437)scale(0.1 -0.1)">
       <defs>
        <path d="M 37.796875 64.3125 
L 12.890625 25.390625 
L 37.796875 25.390625 
z
M 35.203125 72.90625 
L 47.609375 72.90625 
L 47.609375 25.390625 
L 58.015625 25.390625 
L 58.015625 17.1875 
L 47.609375 17.1875 
L 47.609375 0 
L 37.796875 0 
L 37.796875 17.1875 
L 4.890625 17.1875 
L 4.890625 26.703125 
z
" id="DejaVuSans-52"/>
       </defs>
       <use xlink:href="#DejaVuSans-52"/>
       <use x="63.623047" xlink:href="#DejaVuSans-46"/>
       <use x="95.410156" xlink:href="#DejaVuSans-48"/>
      </g>
     </g>
    </g>
   </g>
   <g id="matplotlib.axis_2">
    <g id="ytick_1">
     <g id="line2d_10">
      <defs>
       <path d="M 0 0 
L -3.5 0 
" id="m8ed455dc4b" style="stroke:#000000;stroke-width:0.8;"/>
      </defs>
      <g>
       <use style="stroke:#000000;stroke-width:0.8;" x="20.5625" xlink:href="#m8ed455dc4b" y="198.79998"/>
      </g>
     </g>
     <g id="text_10">
      <!-- 0 -->
      <g transform="translate(7.2 202.599199)scale(0.1 -0.1)">
       <use xlink:href="#DejaVuSans-48"/>
      </g>
     </g>
    </g>
    <g id="ytick_2">
     <g id="line2d_11">
      <g>
       <use style="stroke:#000000;stroke-width:0.8;" x="20.5625" xlink:href="#m8ed455dc4b" y="154.849853"/>
      </g>
     </g>
     <g id="text_11">
      <!-- 1 -->
      <g transform="translate(7.2 158.649071)scale(0.1 -0.1)">
       <use xlink:href="#DejaVuSans-49"/>
      </g>
     </g>
    </g>
    <g id="ytick_3">
     <g id="line2d_12">
      <g>
       <use style="stroke:#000000;stroke-width:0.8;" x="20.5625" xlink:href="#m8ed455dc4b" y="110.899725"/>
      </g>
     </g>
     <g id="text_12">
      <!-- 2 -->
      <g transform="translate(7.2 114.698944)scale(0.1 -0.1)">
       <use xlink:href="#DejaVuSans-50"/>
      </g>
     </g>
    </g>
    <g id="ytick_4">
     <g id="line2d_13">
      <g>
       <use style="stroke:#000000;stroke-width:0.8;" x="20.5625" xlink:href="#m8ed455dc4b" y="66.949598"/>
      </g>
     </g>
     <g id="text_13">
      <!-- 3 -->
      <g transform="translate(7.2 70.748817)scale(0.1 -0.1)">
       <use xlink:href="#DejaVuSans-51"/>
      </g>
     </g>
    </g>
    <g id="ytick_5">
     <g id="line2d_14">
      <g>
       <use style="stroke:#000000;stroke-width:0.8;" x="20.5625" xlink:href="#m8ed455dc4b" y="22.999471"/>
      </g>
     </g>
     <g id="text_14">
      <!-- 4 -->
      <g transform="translate(7.2 26.79869)scale(0.1 -0.1)">
       <use xlink:href="#DejaVuSans-52"/>
      </g>
     </g>
    </g>
   </g>
   <g id="patch_3">
    <path d="M 20.5625 224.64 
L 20.5625 7.2 
" style="fill:none;stroke:#000000;stroke-linecap:square;stroke-linejoin:miter;stroke-width:0.8;"/>
   </g>
   <g id="patch_4">
    <path d="M 355.3625 224.64 
L 355.3625 7.2 
" style="fill:none;stroke:#000000;stroke-linecap:square;stroke-linejoin:miter;stroke-width:0.8;"/>
   </g>
   <g id="patch_5">
    <path d="M 20.5625 224.64 
L 355.3625 224.64 
" style="fill:none;stroke:#000000;stroke-linecap:square;stroke-linejoin:miter;stroke-width:0.8;"/>
   </g>
   <g id="patch_6">
    <path d="M 20.5625 7.2 
L 355.3625 7.2 
" style="fill:none;stroke:#000000;stroke-linecap:square;stroke-linejoin:miter;stroke-width:0.8;"/>
   </g>
  </g>
 </g>
 <defs>
  <clipPath id="p2884af8596">
   <rect height="217.44" width="334.8" x="20.5625" y="7.2"/>
  </clipPath>
 </defs>
</svg>
