<?xml version="1.0" encoding="utf-8" standalone="no"?>
<!DOCTYPE svg PUBLIC "-//W3C//DTD SVG 1.1//EN"
  "http://www.w3.org/Graphics/SVG/1.1/DTD/svg11.dtd">
<!-- Created with matplotlib (https://matplotlib.org/) -->
<svg height="248.518125pt" version="1.1" viewBox="0 0 370.942187 248.518125" width="370.942187pt" xmlns="http://www.w3.org/2000/svg" xmlns:xlink="http://www.w3.org/1999/xlink">
 <metadata>
  <rdf:RDF xmlns:cc="http://creativecommons.org/ns#" xmlns:dc="http://purl.org/dc/elements/1.1/" xmlns:rdf="http://www.w3.org/1999/02/22-rdf-syntax-ns#">
   <cc:Work>
    <dc:type rdf:resource="http://purl.org/dc/dcmitype/StillImage"/>
    <dc:date>2020-09-15T11:57:20.671685</dc:date>
    <dc:format>image/svg+xml</dc:format>
    <dc:creator>
     <cc:Agent>
      <dc:title>Matplotlib v3.3.1, https://matplotlib.org/</dc:title>
     </cc:Agent>
    </dc:creator>
   </cc:Work>
  </rdf:RDF>
 </metadata>
 <defs>
  <style type="text/css">*{stroke-linecap:butt;stroke-linejoin:round;}</style>
 </defs>
 <g id="figure_1">
  <g id="patch_1">
   <path d="M 0 248.518125 
L 370.942187 248.518125 
L 370.942187 0 
L 0 0 
z
" style="fill:none;"/>
  </g>
  <g id="axes_1">
   <g id="patch_2">
    <path d="M 28.942188 224.64 
L 363.742188 224.64 
L 363.742188 7.2 
L 28.942188 7.2 
z
" style="fill:#ffffff;"/>
   </g>
   <g id="PathCollection_1">
    <defs>
     <path d="M 0 3 
C 0.795609 3 1.55874 2.683901 2.12132 2.12132 
C 2.683901 1.55874 3 0.795609 3 0 
C 3 -0.795609 2.683901 -1.55874 2.12132 -2.12132 
C 1.55874 -2.683901 0.795609 -3 0 -3 
C -0.795609 -3 -1.55874 -2.683901 -2.12132 -2.12132 
C -2.683901 -1.55874 -3 -0.795609 -3 0 
C -3 0.795609 -2.683901 1.55874 -2.12132 2.12132 
C -1.55874 2.683901 -0.795609 3 0 3 
z
" id="mee02f212d6" style="stroke:#ff0000;"/>
    </defs>
    <g clip-path="url(#pc5cd7a32fa)">
     <use style="fill:#ff0000;stroke:#ff0000;" x="221.081991" xlink:href="#mee02f212d6" y="92.365538"/>
     <use style="fill:#ff0000;stroke:#ff0000;" x="194.97838" xlink:href="#mee02f212d6" y="83.044389"/>
     <use style="fill:#ff0000;stroke:#ff0000;" x="228.485306" xlink:href="#mee02f212d6" y="51.453651"/>
     <use style="fill:#ff0000;stroke:#ff0000;" x="228.270721" xlink:href="#mee02f212d6" y="71.403717"/>
     <use style="fill:#ff0000;stroke:#ff0000;" x="193.907137" xlink:href="#mee02f212d6" y="54.14732"/>
     <use style="fill:#ff0000;stroke:#ff0000;" x="247.994346" xlink:href="#mee02f212d6" y="60.724223"/>
     <use style="fill:#ff0000;stroke:#ff0000;" x="215.272909" xlink:href="#mee02f212d6" y="83.189432"/>
     <use style="fill:#ff0000;stroke:#ff0000;" x="206.081497" xlink:href="#mee02f212d6" y="73.46377"/>
     <use style="fill:#ff0000;stroke:#ff0000;" x="152.981148" xlink:href="#mee02f212d6" y="58.856714"/>
     <use style="fill:#ff0000;stroke:#ff0000;" x="242.342726" xlink:href="#mee02f212d6" y="63.875124"/>
     <use style="fill:#ff0000;stroke:#ff0000;" x="213.529213" xlink:href="#mee02f212d6" y="76.999363"/>
     <use style="fill:#ff0000;stroke:#ff0000;" x="266.978879" xlink:href="#mee02f212d6" y="87.211183"/>
     <use style="fill:#ff0000;stroke:#ff0000;" x="280.171723" xlink:href="#mee02f212d6" y="74.598078"/>
     <use style="fill:#ff0000;stroke:#ff0000;" x="203.473085" xlink:href="#mee02f212d6" y="48.580331"/>
     <use style="fill:#ff0000;stroke:#ff0000;" x="248.270016" xlink:href="#mee02f212d6" y="76.788548"/>
     <use style="fill:#ff0000;stroke:#ff0000;" x="177.315105" xlink:href="#mee02f212d6" y="62.20844"/>
     <use style="fill:#ff0000;stroke:#ff0000;" x="266.245659" xlink:href="#mee02f212d6" y="58.58096"/>
     <use style="fill:#ff0000;stroke:#ff0000;" x="207.536463" xlink:href="#mee02f212d6" y="69.977369"/>
     <use style="fill:#ff0000;stroke:#ff0000;" x="208.38135" xlink:href="#mee02f212d6" y="77.653564"/>
     <use style="fill:#ff0000;stroke:#ff0000;" x="217.534615" xlink:href="#mee02f212d6" y="60.687695"/>
     <use style="fill:#ff0000;stroke:#ff0000;" x="233.693688" xlink:href="#mee02f212d6" y="87.421226"/>
     <use style="fill:#ff0000;stroke:#ff0000;" x="256.141324" xlink:href="#mee02f212d6" y="76.062461"/>
     <use style="fill:#ff0000;stroke:#ff0000;" x="200.664021" xlink:href="#mee02f212d6" y="56.372848"/>
     <use style="fill:#ff0000;stroke:#ff0000;" x="210.866579" xlink:href="#mee02f212d6" y="58.919605"/>
     <use style="fill:#ff0000;stroke:#ff0000;" x="282.315521" xlink:href="#mee02f212d6" y="65.962368"/>
     <use style="fill:#ff0000;stroke:#ff0000;" x="261.420742" xlink:href="#mee02f212d6" y="60.739137"/>
     <use style="fill:#ff0000;stroke:#ff0000;" x="206.56604" xlink:href="#mee02f212d6" y="77.059535"/>
     <use style="fill:#ff0000;stroke:#ff0000;" x="234.6238" xlink:href="#mee02f212d6" y="62.120296"/>
     <use style="fill:#ff0000;stroke:#ff0000;" x="214.157981" xlink:href="#mee02f212d6" y="64.985599"/>
     <use style="fill:#ff0000;stroke:#ff0000;" x="196.078192" xlink:href="#mee02f212d6" y="65.713305"/>
     <use style="fill:#ff0000;stroke:#ff0000;" x="269.266331" xlink:href="#mee02f212d6" y="92.625585"/>
     <use style="fill:#ff0000;stroke:#ff0000;" x="256.911578" xlink:href="#mee02f212d6" y="78.89295"/>
     <use style="fill:#ff0000;stroke:#ff0000;" x="255.352605" xlink:href="#mee02f212d6" y="83.155027"/>
     <use style="fill:#ff0000;stroke:#ff0000;" x="222.302844" xlink:href="#mee02f212d6" y="81.658709"/>
     <use style="fill:#ff0000;stroke:#ff0000;" x="239.28698" xlink:href="#mee02f212d6" y="85.158175"/>
     <use style="fill:#ff0000;stroke:#ff0000;" x="256.360304" xlink:href="#mee02f212d6" y="45.209145"/>
     <use style="fill:#ff0000;stroke:#ff0000;" x="210.485471" xlink:href="#mee02f212d6" y="90.284032"/>
     <use style="fill:#ff0000;stroke:#ff0000;" x="200.332015" xlink:href="#mee02f212d6" y="67.555987"/>
     <use style="fill:#ff0000;stroke:#ff0000;" x="222.286845" xlink:href="#mee02f212d6" y="76.770833"/>
     <use style="fill:#ff0000;stroke:#ff0000;" x="208.610363" xlink:href="#mee02f212d6" y="59.948236"/>
     <use style="fill:#ff0000;stroke:#ff0000;" x="205.782036" xlink:href="#mee02f212d6" y="62.97517"/>
     <use style="fill:#ff0000;stroke:#ff0000;" x="176.695663" xlink:href="#mee02f212d6" y="90.297113"/>
     <use style="fill:#ff0000;stroke:#ff0000;" x="281.557161" xlink:href="#mee02f212d6" y="83.714118"/>
     <use style="fill:#ff0000;stroke:#ff0000;" x="229.25371" xlink:href="#mee02f212d6" y="80.81641"/>
     <use style="fill:#ff0000;stroke:#ff0000;" x="215.004376" xlink:href="#mee02f212d6" y="72.79723"/>
     <use style="fill:#ff0000;stroke:#ff0000;" x="191.3639" xlink:href="#mee02f212d6" y="62.237701"/>
     <use style="fill:#ff0000;stroke:#ff0000;" x="224.744422" xlink:href="#mee02f212d6" y="70.420685"/>
     <use style="fill:#ff0000;stroke:#ff0000;" x="239.867942" xlink:href="#mee02f212d6" y="73.788609"/>
     <use style="fill:#ff0000;stroke:#ff0000;" x="225.266247" xlink:href="#mee02f212d6" y="76.249587"/>
     <use style="fill:#ff0000;stroke:#ff0000;" x="217.781445" xlink:href="#mee02f212d6" y="72.372697"/>
    </g>
   </g>
   <g id="PathCollection_2">
    <defs>
     <path d="M 0 3 
C 0.795609 3 1.55874 2.683901 2.12132 2.12132 
C 2.683901 1.55874 3 0.795609 3 0 
C 3 -0.795609 2.683901 -1.55874 2.12132 -2.12132 
C 1.55874 -2.683901 0.795609 -3 0 -3 
C -0.795609 -3 -1.55874 -2.683901 -2.12132 -2.12132 
C -2.683901 -1.55874 -3 -0.795609 -3 0 
C -3 0.795609 -2.683901 1.55874 -2.12132 2.12132 
C -1.55874 2.683901 -0.795609 3 0 3 
z
" id="maff7996a0b" style="stroke:#0000ff;"/>
    </defs>
    <g clip-path="url(#pc5cd7a32fa)">
     <use style="fill:#0000ff;stroke:#0000ff;" x="110.615905" xlink:href="#maff7996a0b" y="117.572813"/>
     <use style="fill:#0000ff;stroke:#0000ff;" x="103.530629" xlink:href="#maff7996a0b" y="129.16371"/>
     <use style="fill:#0000ff;stroke:#0000ff;" x="44.160369" xlink:href="#maff7996a0b" y="129.294651"/>
     <use style="fill:#0000ff;stroke:#0000ff;" x="138.834458" xlink:href="#maff7996a0b" y="98.442568"/>
     <use style="fill:#0000ff;stroke:#0000ff;" x="104.447845" xlink:href="#maff7996a0b" y="117.067448"/>
     <use style="fill:#0000ff;stroke:#0000ff;" x="201.488346" xlink:href="#maff7996a0b" y="123.955254"/>
     <use style="fill:#0000ff;stroke:#0000ff;" x="83.463232" xlink:href="#maff7996a0b" y="121.657768"/>
     <use style="fill:#0000ff;stroke:#0000ff;" x="141.474166" xlink:href="#maff7996a0b" y="105.252487"/>
     <use style="fill:#0000ff;stroke:#0000ff;" x="127.865097" xlink:href="#maff7996a0b" y="109.941481"/>
     <use style="fill:#0000ff;stroke:#0000ff;" x="106.504457" xlink:href="#maff7996a0b" y="122.891363"/>
     <use style="fill:#0000ff;stroke:#0000ff;" x="145.718787" xlink:href="#maff7996a0b" y="120.815382"/>
     <use style="fill:#0000ff;stroke:#0000ff;" x="140.685586" xlink:href="#maff7996a0b" y="120.985536"/>
     <use style="fill:#0000ff;stroke:#0000ff;" x="144.018204" xlink:href="#maff7996a0b" y="141.361284"/>
     <use style="fill:#0000ff;stroke:#0000ff;" x="78.60103" xlink:href="#maff7996a0b" y="133.847099"/>
     <use style="fill:#0000ff;stroke:#0000ff;" x="96.681506" xlink:href="#maff7996a0b" y="109.841155"/>
     <use style="fill:#0000ff;stroke:#0000ff;" x="115.944196" xlink:href="#maff7996a0b" y="121.381974"/>
     <use style="fill:#0000ff;stroke:#0000ff;" x="139.059189" xlink:href="#maff7996a0b" y="113.096824"/>
     <use style="fill:#0000ff;stroke:#0000ff;" x="114.152117" xlink:href="#maff7996a0b" y="110.09596"/>
     <use style="fill:#0000ff;stroke:#0000ff;" x="112.316016" xlink:href="#maff7996a0b" y="145.267976"/>
     <use style="fill:#0000ff;stroke:#0000ff;" x="151.956562" xlink:href="#maff7996a0b" y="132.573871"/>
     <use style="fill:#0000ff;stroke:#0000ff;" x="136.630613" xlink:href="#maff7996a0b" y="112.998849"/>
     <use style="fill:#0000ff;stroke:#0000ff;" x="141.716754" xlink:href="#maff7996a0b" y="127.381517"/>
     <use style="fill:#0000ff;stroke:#0000ff;" x="151.960474" xlink:href="#maff7996a0b" y="111.394461"/>
     <use style="fill:#0000ff;stroke:#0000ff;" x="135.498624" xlink:href="#maff7996a0b" y="98.854873"/>
     <use style="fill:#0000ff;stroke:#0000ff;" x="154.144642" xlink:href="#maff7996a0b" y="97.541694"/>
     <use style="fill:#0000ff;stroke:#0000ff;" x="77.905324" xlink:href="#maff7996a0b" y="129.333698"/>
     <use style="fill:#0000ff;stroke:#0000ff;" x="159.676697" xlink:href="#maff7996a0b" y="126.446598"/>
     <use style="fill:#0000ff;stroke:#0000ff;" x="122.698187" xlink:href="#maff7996a0b" y="112.471934"/>
     <use style="fill:#0000ff;stroke:#0000ff;" x="118.560387" xlink:href="#maff7996a0b" y="103.974068"/>
     <use style="fill:#0000ff;stroke:#0000ff;" x="95.946241" xlink:href="#maff7996a0b" y="117.251783"/>
     <use style="fill:#0000ff;stroke:#0000ff;" x="161.455886" xlink:href="#maff7996a0b" y="121.737186"/>
     <use style="fill:#0000ff;stroke:#0000ff;" x="84.584161" xlink:href="#maff7996a0b" y="125.02469"/>
     <use style="fill:#0000ff;stroke:#0000ff;" x="96.441385" xlink:href="#maff7996a0b" y="106.155462"/>
     <use style="fill:#0000ff;stroke:#0000ff;" x="109.534896" xlink:href="#maff7996a0b" y="135.253641"/>
     <use style="fill:#0000ff;stroke:#0000ff;" x="82.284331" xlink:href="#maff7996a0b" y="151.973233"/>
     <use style="fill:#0000ff;stroke:#0000ff;" x="129.62889" xlink:href="#maff7996a0b" y="120.012889"/>
     <use style="fill:#0000ff;stroke:#0000ff;" x="132.988192" xlink:href="#maff7996a0b" y="130.721277"/>
     <use style="fill:#0000ff;stroke:#0000ff;" x="68.219167" xlink:href="#maff7996a0b" y="119.467044"/>
     <use style="fill:#0000ff;stroke:#0000ff;" x="72.065705" xlink:href="#maff7996a0b" y="97.010979"/>
     <use style="fill:#0000ff;stroke:#0000ff;" x="146.719155" xlink:href="#maff7996a0b" y="119.953167"/>
     <use style="fill:#0000ff;stroke:#0000ff;" x="96.73694" xlink:href="#maff7996a0b" y="131.847495"/>
     <use style="fill:#0000ff;stroke:#0000ff;" x="106.415786" xlink:href="#maff7996a0b" y="136.765846"/>
     <use style="fill:#0000ff;stroke:#0000ff;" x="90.929973" xlink:href="#maff7996a0b" y="139.756902"/>
     <use style="fill:#0000ff;stroke:#0000ff;" x="106.149969" xlink:href="#maff7996a0b" y="124.327129"/>
     <use style="fill:#0000ff;stroke:#0000ff;" x="147.751017" xlink:href="#maff7996a0b" y="87.67798"/>
     <use style="fill:#0000ff;stroke:#0000ff;" x="111.740799" xlink:href="#maff7996a0b" y="118.69211"/>
     <use style="fill:#0000ff;stroke:#0000ff;" x="151.351876" xlink:href="#maff7996a0b" y="102.291425"/>
     <use style="fill:#0000ff;stroke:#0000ff;" x="92.784589" xlink:href="#maff7996a0b" y="119.015022"/>
     <use style="fill:#0000ff;stroke:#0000ff;" x="138.712868" xlink:href="#maff7996a0b" y="117.033022"/>
     <use style="fill:#0000ff;stroke:#0000ff;" x="108.686495" xlink:href="#maff7996a0b" y="120.427397"/>
    </g>
   </g>
   <g id="matplotlib.axis_1">
    <g id="xtick_1">
     <g id="line2d_1">
      <defs>
       <path d="M 0 0 
L 0 3.5 
" id="ma9794b2c43" style="stroke:#000000;stroke-width:0.8;"/>
      </defs>
      <g>
       <use style="stroke:#000000;stroke-width:0.8;" x="55.712468" xlink:href="#ma9794b2c43" y="224.64"/>
      </g>
     </g>
     <g id="text_1">
      <!-- 0 -->
      <g transform="translate(52.531218 239.238437)scale(0.1 -0.1)">
       <defs>
        <path d="M 31.78125 66.40625 
Q 24.171875 66.40625 20.328125 58.90625 
Q 16.5 51.421875 16.5 36.375 
Q 16.5 21.390625 20.328125 13.890625 
Q 24.171875 6.390625 31.78125 6.390625 
Q 39.453125 6.390625 43.28125 13.890625 
Q 47.125 21.390625 47.125 36.375 
Q 47.125 51.421875 43.28125 58.90625 
Q 39.453125 66.40625 31.78125 66.40625 
z
M 31.78125 74.21875 
Q 44.046875 74.21875 50.515625 64.515625 
Q 56.984375 54.828125 56.984375 36.375 
Q 56.984375 17.96875 50.515625 8.265625 
Q 44.046875 -1.421875 31.78125 -1.421875 
Q 19.53125 -1.421875 13.0625 8.265625 
Q 6.59375 17.96875 6.59375 36.375 
Q 6.59375 54.828125 13.0625 64.515625 
Q 19.53125 74.21875 31.78125 74.21875 
z
" id="DejaVuSans-48"/>
       </defs>
       <use xlink:href="#DejaVuSans-48"/>
      </g>
     </g>
    </g>
    <g id="xtick_2">
     <g id="line2d_2">
      <g>
       <use style="stroke:#000000;stroke-width:0.8;" x="114.274776" xlink:href="#ma9794b2c43" y="224.64"/>
      </g>
     </g>
     <g id="text_2">
      <!-- 1 -->
      <g transform="translate(111.093526 239.238437)scale(0.1 -0.1)">
       <defs>
        <path d="M 12.40625 8.296875 
L 28.515625 8.296875 
L 28.515625 63.921875 
L 10.984375 60.40625 
L 10.984375 69.390625 
L 28.421875 72.90625 
L 38.28125 72.90625 
L 38.28125 8.296875 
L 54.390625 8.296875 
L 54.390625 0 
L 12.40625 0 
z
" id="DejaVuSans-49"/>
       </defs>
       <use xlink:href="#DejaVuSans-49"/>
      </g>
     </g>
    </g>
    <g id="xtick_3">
     <g id="line2d_3">
      <g>
       <use style="stroke:#000000;stroke-width:0.8;" x="172.837083" xlink:href="#ma9794b2c43" y="224.64"/>
      </g>
     </g>
     <g id="text_3">
      <!-- 2 -->
      <g transform="translate(169.655833 239.238437)scale(0.1 -0.1)">
       <defs>
        <path d="M 19.1875 8.296875 
L 53.609375 8.296875 
L 53.609375 0 
L 7.328125 0 
L 7.328125 8.296875 
Q 12.9375 14.109375 22.625 23.890625 
Q 32.328125 33.6875 34.8125 36.53125 
Q 39.546875 41.84375 41.421875 45.53125 
Q 43.3125 49.21875 43.3125 52.78125 
Q 43.3125 58.59375 39.234375 62.25 
Q 35.15625 65.921875 28.609375 65.921875 
Q 23.96875 65.921875 18.8125 64.3125 
Q 13.671875 62.703125 7.8125 59.421875 
L 7.8125 69.390625 
Q 13.765625 71.78125 18.9375 73 
Q 24.125 74.21875 28.421875 74.21875 
Q 39.75 74.21875 46.484375 68.546875 
Q 53.21875 62.890625 53.21875 53.421875 
Q 53.21875 48.921875 51.53125 44.890625 
Q 49.859375 40.875 45.40625 35.40625 
Q 44.1875 33.984375 37.640625 27.21875 
Q 31.109375 20.453125 19.1875 8.296875 
z
" id="DejaVuSans-50"/>
       </defs>
       <use xlink:href="#DejaVuSans-50"/>
      </g>
     </g>
    </g>
    <g id="xtick_4">
     <g id="line2d_4">
      <g>
       <use style="stroke:#000000;stroke-width:0.8;" x="231.399391" xlink:href="#ma9794b2c43" y="224.64"/>
      </g>
     </g>
     <g id="text_4">
      <!-- 3 -->
      <g transform="translate(228.218141 239.238437)scale(0.1 -0.1)">
       <defs>
        <path d="M 40.578125 39.3125 
Q 47.65625 37.796875 51.625 33 
Q 55.609375 28.21875 55.609375 21.1875 
Q 55.609375 10.40625 48.1875 4.484375 
Q 40.765625 -1.421875 27.09375 -1.421875 
Q 22.515625 -1.421875 17.65625 -0.515625 
Q 12.796875 0.390625 7.625 2.203125 
L 7.625 11.71875 
Q 11.71875 9.328125 16.59375 8.109375 
Q 21.484375 6.890625 26.8125 6.890625 
Q 36.078125 6.890625 40.9375 10.546875 
Q 45.796875 14.203125 45.796875 21.1875 
Q 45.796875 27.640625 41.28125 31.265625 
Q 36.765625 34.90625 28.71875 34.90625 
L 20.21875 34.90625 
L 20.21875 43.015625 
L 29.109375 43.015625 
Q 36.375 43.015625 40.234375 45.921875 
Q 44.09375 48.828125 44.09375 54.296875 
Q 44.09375 59.90625 40.109375 62.90625 
Q 36.140625 65.921875 28.71875 65.921875 
Q 24.65625 65.921875 20.015625 65.03125 
Q 15.375 64.15625 9.8125 62.3125 
L 9.8125 71.09375 
Q 15.4375 72.65625 20.34375 73.4375 
Q 25.25 74.21875 29.59375 74.21875 
Q 40.828125 74.21875 47.359375 69.109375 
Q 53.90625 64.015625 53.90625 55.328125 
Q 53.90625 49.265625 50.4375 45.09375 
Q 46.96875 40.921875 40.578125 39.3125 
z
" id="DejaVuSans-51"/>
       </defs>
       <use xlink:href="#DejaVuSans-51"/>
      </g>
     </g>
    </g>
    <g id="xtick_5">
     <g id="line2d_5">
      <g>
       <use style="stroke:#000000;stroke-width:0.8;" x="289.961698" xlink:href="#ma9794b2c43" y="224.64"/>
      </g>
     </g>
     <g id="text_5">
      <!-- 4 -->
      <g transform="translate(286.780448 239.238437)scale(0.1 -0.1)">
       <defs>
        <path d="M 37.796875 64.3125 
L 12.890625 25.390625 
L 37.796875 25.390625 
z
M 35.203125 72.90625 
L 47.609375 72.90625 
L 47.609375 25.390625 
L 58.015625 25.390625 
L 58.015625 17.1875 
L 47.609375 17.1875 
L 47.609375 0 
L 37.796875 0 
L 37.796875 17.1875 
L 4.890625 17.1875 
L 4.890625 26.703125 
z
" id="DejaVuSans-52"/>
       </defs>
       <use xlink:href="#DejaVuSans-52"/>
      </g>
     </g>
    </g>
    <g id="xtick_6">
     <g id="line2d_6">
      <g>
       <use style="stroke:#000000;stroke-width:0.8;" x="348.524006" xlink:href="#ma9794b2c43" y="224.64"/>
      </g>
     </g>
     <g id="text_6">
      <!-- 5 -->
      <g transform="translate(345.342756 239.238437)scale(0.1 -0.1)">
       <defs>
        <path d="M 10.796875 72.90625 
L 49.515625 72.90625 
L 49.515625 64.59375 
L 19.828125 64.59375 
L 19.828125 46.734375 
Q 21.96875 47.46875 24.109375 47.828125 
Q 26.265625 48.1875 28.421875 48.1875 
Q 40.625 48.1875 47.75 41.5 
Q 54.890625 34.8125 54.890625 23.390625 
Q 54.890625 11.625 47.5625 5.09375 
Q 40.234375 -1.421875 26.90625 -1.421875 
Q 22.3125 -1.421875 17.546875 -0.640625 
Q 12.796875 0.140625 7.71875 1.703125 
L 7.71875 11.625 
Q 12.109375 9.234375 16.796875 8.0625 
Q 21.484375 6.890625 26.703125 6.890625 
Q 35.15625 6.890625 40.078125 11.328125 
Q 45.015625 15.765625 45.015625 23.390625 
Q 45.015625 31 40.078125 35.4375 
Q 35.15625 39.890625 26.703125 39.890625 
Q 22.75 39.890625 18.8125 39.015625 
Q 14.890625 38.140625 10.796875 36.28125 
z
" id="DejaVuSans-53"/>
       </defs>
       <use xlink:href="#DejaVuSans-53"/>
      </g>
     </g>
    </g>
   </g>
   <g id="matplotlib.axis_2">
    <g id="ytick_1">
     <g id="line2d_7">
      <defs>
       <path d="M 0 0 
L -3.5 0 
" id="m20fd1379ec" style="stroke:#000000;stroke-width:0.8;"/>
      </defs>
      <g>
       <use style="stroke:#000000;stroke-width:0.8;" x="28.942188" xlink:href="#m20fd1379ec" y="190.830499"/>
      </g>
     </g>
     <g id="text_7">
      <!-- −2 -->
      <g transform="translate(7.2 194.629718)scale(0.1 -0.1)">
       <defs>
        <path d="M 10.59375 35.5 
L 73.1875 35.5 
L 73.1875 27.203125 
L 10.59375 27.203125 
z
" id="DejaVuSans-8722"/>
       </defs>
       <use xlink:href="#DejaVuSans-8722"/>
       <use x="83.789062" xlink:href="#DejaVuSans-50"/>
      </g>
     </g>
    </g>
    <g id="ytick_2">
     <g id="line2d_8">
      <g>
       <use style="stroke:#000000;stroke-width:0.8;" x="28.942188" xlink:href="#m20fd1379ec" y="143.355106"/>
      </g>
     </g>
     <g id="text_8">
      <!-- 0 -->
      <g transform="translate(15.579688 147.154324)scale(0.1 -0.1)">
       <use xlink:href="#DejaVuSans-48"/>
      </g>
     </g>
    </g>
    <g id="ytick_3">
     <g id="line2d_9">
      <g>
       <use style="stroke:#000000;stroke-width:0.8;" x="28.942188" xlink:href="#m20fd1379ec" y="95.879712"/>
      </g>
     </g>
     <g id="text_9">
      <!-- 2 -->
      <g transform="translate(15.579688 99.678931)scale(0.1 -0.1)">
       <use xlink:href="#DejaVuSans-50"/>
      </g>
     </g>
    </g>
    <g id="ytick_4">
     <g id="line2d_10">
      <g>
       <use style="stroke:#000000;stroke-width:0.8;" x="28.942188" xlink:href="#m20fd1379ec" y="48.404319"/>
      </g>
     </g>
     <g id="text_10">
      <!-- 4 -->
      <g transform="translate(15.579688 52.203538)scale(0.1 -0.1)">
       <use xlink:href="#DejaVuSans-52"/>
      </g>
     </g>
    </g>
   </g>
   <g id="line2d_11">
    <path clip-path="url(#pc5cd7a32fa)" d="M 55.712468 17.083636 
L 114.274776 56.618182 
L 172.837083 96.152727 
L 231.399391 135.687273 
L 289.961698 175.221818 
L 348.524006 214.756364 
" style="fill:none;stroke:#000000;stroke-linecap:square;stroke-width:1.5;"/>
   </g>
   <g id="patch_3">
    <path d="M 28.942188 224.64 
L 28.942188 7.2 
" style="fill:none;stroke:#000000;stroke-linecap:square;stroke-linejoin:miter;stroke-width:0.8;"/>
   </g>
   <g id="patch_4">
    <path d="M 363.742188 224.64 
L 363.742188 7.2 
" style="fill:none;stroke:#000000;stroke-linecap:square;stroke-linejoin:miter;stroke-width:0.8;"/>
   </g>
   <g id="patch_5">
    <path d="M 28.942188 224.64 
L 363.742188 224.64 
" style="fill:none;stroke:#000000;stroke-linecap:square;stroke-linejoin:miter;stroke-width:0.8;"/>
   </g>
   <g id="patch_6">
    <path d="M 28.942188 7.2 
L 363.742188 7.2 
" style="fill:none;stroke:#000000;stroke-linecap:square;stroke-linejoin:miter;stroke-width:0.8;"/>
   </g>
  </g>
 </g>
 <defs>
  <clipPath id="pc5cd7a32fa">
   <rect height="217.44" width="334.8" x="28.942188" y="7.2"/>
  </clipPath>
 </defs>
</svg>
